<svg width="49" height="49" viewBox="0 0 49 49" fill="none" xmlns="http://www.w3.org/2000/svg">
<path d="M18.1948 17.3608L7.489 28.1001C3.6669 31.9222 3.66383 38.116 7.48213 41.9343C11.3004 45.7526 17.4942 45.7495 21.3163 41.9274L31.4495 31.6563L24.3016 24.0922L18.1948 17.3608Z" fill="#0FE3AF" stroke="#0152A8" stroke-width="2" stroke-linecap="round" stroke-linejoin="round"/>
<path d="M28.2199 7.36873L7.48888 28.0997C3.66678 31.9218 3.66371 38.1156 7.48201 41.9339C11.3003 45.7522 17.4941 45.7491 21.3162 41.927L42.0472 21.196C45.8693 17.3739 45.8724 11.1802 42.0541 7.36185C38.2358 3.54355 32.042 3.54663 28.2199 7.36873Z" stroke="#0152A8" stroke-width="2" stroke-linecap="round" stroke-linejoin="round"/>
<path d="M17.8496 17.75L31.6769 31.5772" stroke="#0152A8" stroke-width="2" stroke-linecap="round" stroke-linejoin="round"/>
<path d="M31.6982 21.2275L36.9699 16.1287" stroke="#0152A8" stroke-width="2" stroke-linecap="round" stroke-linejoin="round"/>
</svg>
