<svg width="43" height="41" viewBox="0 0 43 41" fill="none" xmlns="http://www.w3.org/2000/svg">
<path d="M41.8913 2.70339C41.6365 2.12393 41.2182 1.63139 40.6877 1.28616C40.1571 0.940926 39.5373 0.757991 38.9043 0.759779H3.75569C3.12287 0.764869 2.50491 0.952149 1.97572 1.29922C1.44654 1.64629 1.02854 2.13845 0.771716 2.71684C0.514894 3.29523 0.430125 3.93535 0.527548 4.56065C0.624971 5.18596 0.900462 5.76996 1.32107 6.2428L14.7831 21.0347V36.9927C14.7821 37.5865 14.9436 38.1692 15.2502 38.6777C15.5567 39.1862 15.9966 39.6011 16.5221 39.8774C16.9953 40.1275 17.5214 40.2608 18.0566 40.2662C18.7048 40.2664 19.3385 40.0741 19.8774 39.7138L26.4243 35.3355C26.8727 35.0376 27.2401 34.633 27.4936 34.1581C27.7471 33.6832 27.8788 33.1528 27.8769 32.6145V21.0347L41.3389 6.2428C41.7673 5.77166 42.048 5.18515 42.1462 4.55598C42.2444 3.92681 42.1558 3.28266 41.8913 2.70339V2.70339Z" fill="#0152A8"/>
</svg>
