<svg width="23" height="26" viewBox="0 0 23 26" fill="none" xmlns="http://www.w3.org/2000/svg">
<path fill-rule="evenodd" clip-rule="evenodd" d="M16.368 0.497314C16.8494 0.497314 17.2401 0.88801 17.2401 1.3694L17.2406 2.35522C18.9384 2.47163 20.3485 3.05317 21.3464 4.05323C22.436 5.14741 23.0092 6.72066 23.0035 8.60786V19.216C23.0035 23.0903 20.543 25.4973 16.5837 25.4973H6.74884C2.78956 25.4973 0.329102 23.0566 0.329102 19.1276V8.60553C0.329102 4.95112 2.52334 2.60537 6.10197 2.35562L6.10268 1.3694C6.10268 0.88801 6.49338 0.497314 6.97477 0.497314C7.45616 0.497314 7.84686 0.88801 7.84686 1.3694L7.84651 2.33335H15.4953L15.4959 1.3694C15.4959 0.88801 15.8866 0.497314 16.368 0.497314ZM21.2592 10.8508H2.07328V19.1276C2.07328 22.1113 3.73374 23.7531 6.74884 23.7531H16.5837C19.5988 23.7531 21.2593 22.1415 21.2593 19.216L21.2592 10.8508ZM16.842 18.1673C17.3234 18.1673 17.7141 18.558 17.7141 19.0394C17.7141 19.5208 17.3234 19.9115 16.842 19.9115C16.3607 19.9115 15.9653 19.5208 15.9653 19.0394C15.9653 18.558 16.3502 18.1673 16.8316 18.1673H16.842ZM11.6822 18.1673C12.1636 18.1673 12.5543 18.558 12.5543 19.0394C12.5543 19.5208 12.1636 19.9115 11.6822 19.9115C11.2008 19.9115 10.8054 19.5208 10.8054 19.0394C10.8054 18.558 11.1903 18.1673 11.6717 18.1673H11.6822ZM6.51151 18.1673C6.99291 18.1673 7.3836 18.558 7.3836 19.0394C7.3836 19.5208 6.99291 19.9115 6.51151 19.9115C6.03012 19.9115 5.63361 19.5208 5.63361 19.0394C5.63361 18.558 6.01966 18.1673 6.50105 18.1673H6.51151ZM16.842 13.648C17.3234 13.648 17.7141 14.0386 17.7141 14.52C17.7141 15.0014 17.3234 15.3921 16.842 15.3921C16.3607 15.3921 15.9653 15.0014 15.9653 14.52C15.9653 14.0386 16.3502 13.648 16.8316 13.648H16.842ZM11.6822 13.648C12.1636 13.648 12.5543 14.0386 12.5543 14.52C12.5543 15.0014 12.1636 15.3921 11.6822 15.3921C11.2008 15.3921 10.8054 15.0014 10.8054 14.52C10.8054 14.0386 11.1903 13.648 11.6717 13.648H11.6822ZM6.51151 13.648C6.99291 13.648 7.3836 14.0386 7.3836 14.52C7.3836 15.0014 6.99291 15.3921 6.51151 15.3921C6.03012 15.3921 5.63361 15.0014 5.63361 14.52C5.63361 14.0386 6.01966 13.648 6.50105 13.648H6.51151ZM15.4953 4.07753H7.84651L7.84686 5.19613C7.84686 5.67752 7.45616 6.06822 6.97477 6.06822C6.49338 6.06822 6.10268 5.67752 6.10268 5.19613L6.10206 4.10393C3.49715 4.32275 2.07328 5.90177 2.07328 8.60553V9.10658H21.2592L21.2593 8.60553C21.2639 7.16949 20.8778 6.05322 20.1116 5.28578C19.4389 4.61114 18.4556 4.20823 17.2411 4.10449L17.2401 5.19613C17.2401 5.67752 16.8494 6.06822 16.368 6.06822C15.8866 6.06822 15.4959 5.67752 15.4959 5.19613L15.4953 4.07753Z" fill="#B9B9B9"/>
</svg>
