<svg width="39" height="36" viewBox="0 0 39 36" fill="none" xmlns="http://www.w3.org/2000/svg">
<path d="M35.2937 6.09591H27.986V4.63437C27.9812 3.47298 27.5177 2.36053 26.6965 1.53929C25.8753 0.718059 24.7628 0.254565 23.6014 0.249756H14.8322C13.6708 0.254565 12.5583 0.718059 11.7371 1.53929C10.9159 2.36053 10.4524 3.47298 10.4476 4.63437V6.09591H3.13987C2.36463 6.09591 1.62113 6.40388 1.07295 6.95206C0.524763 7.50024 0.216797 8.24374 0.216797 9.01899V32.4036C0.216797 33.1789 0.524763 33.9223 1.07295 34.4705C1.62113 35.0187 2.36463 35.3267 3.13987 35.3267H35.2937C36.069 35.3267 36.8125 35.0187 37.3606 34.4705C37.9088 33.9223 38.2168 33.1789 38.2168 32.4036V9.01899C38.2168 8.24374 37.9088 7.50024 37.3606 6.95206C36.8125 6.40388 36.069 6.09591 35.2937 6.09591V6.09591ZM13.3706 4.63437C13.3706 4.24675 13.5246 3.875 13.7987 3.60091C14.0728 3.32682 14.4446 3.17283 14.8322 3.17283H23.6014C23.989 3.17283 24.3608 3.32682 24.6349 3.60091C24.909 3.875 25.063 4.24675 25.063 4.63437V6.09591H13.3706V4.63437ZM24.3322 22.1728H20.6783V25.8267C20.6783 26.2143 20.5244 26.5861 20.2503 26.8601C19.9762 27.1342 19.6044 27.2882 19.2168 27.2882C18.8292 27.2882 18.4574 27.1342 18.1833 26.8601C17.9092 26.5861 17.7553 26.2143 17.7553 25.8267V22.1728H14.1014C13.7138 22.1728 13.342 22.0189 13.0679 21.7448C12.7939 21.4707 12.6399 21.0989 12.6399 20.7113C12.6399 20.3237 12.7939 19.9519 13.0679 19.6778C13.342 19.4037 13.7138 19.2498 14.1014 19.2498H17.7553V15.5959C17.7553 15.2083 17.9092 14.8365 18.1833 14.5624C18.4574 14.2884 18.8292 14.1344 19.2168 14.1344C19.6044 14.1344 19.9762 14.2884 20.2503 14.5624C20.5244 14.8365 20.6783 15.2083 20.6783 15.5959V19.2498H24.3322C24.7198 19.2498 25.0916 19.4037 25.3656 19.6778C25.6397 19.9519 25.7937 20.3237 25.7937 20.7113C25.7937 21.0989 25.6397 21.4707 25.3656 21.7448C25.0916 22.0189 24.7198 22.1728 24.3322 22.1728Z" fill="#0152A8"/>
</svg>
