<svg width="216" height="33" viewBox="0 0 216 33" fill="none" xmlns="http://www.w3.org/2000/svg">
<path d="M52.9295 25.5728L52.9295 7.32275L55.1795 7.32275L55.1795 15.1228L61.0295 15.1228L61.0295 7.32276L63.2795 7.32276L63.2795 25.5728L61.0295 25.5728L61.0295 17.1728L55.1795 17.1728L55.1795 25.5728L52.9295 25.5728ZM73.0947 25.8228C72.0114 25.8228 71.0614 25.6061 70.2447 25.1728C69.4447 24.7394 68.8197 24.1311 68.3697 23.3478C67.9364 22.5478 67.7197 21.6228 67.7197 20.5728L67.7197 16.8228C67.7197 15.7561 67.9364 14.8311 68.3697 14.0478C68.8197 13.2644 69.4447 12.6561 70.2447 12.2228C71.0614 11.7894 72.0114 11.5728 73.0947 11.5728C74.1781 11.5728 75.1197 11.7894 75.9197 12.2228C76.7364 12.6561 77.3614 13.2644 77.7947 14.0478C78.2447 14.8311 78.4697 15.7561 78.4697 16.8228L78.4697 19.2478L69.9197 19.2478L69.9197 20.5728C69.9197 21.6561 70.1947 22.4894 70.7447 23.0728C71.2947 23.6394 72.0781 23.9228 73.0947 23.9228C73.9614 23.9228 74.6614 23.7728 75.1947 23.4728C75.7281 23.1561 76.0531 22.6894 76.1697 22.0728L78.4197 22.0728C78.2697 23.2228 77.7031 24.1394 76.7197 24.8228C75.7531 25.4894 74.5447 25.8228 73.0947 25.8228ZM76.2697 17.7478L76.2697 16.8228C76.2697 15.7394 75.9947 14.9061 75.4447 14.3228C74.9114 13.7394 74.1281 13.4478 73.0947 13.4478C72.0781 13.4478 71.2947 13.7394 70.7447 14.3228C70.1947 14.9061 69.9197 15.7394 69.9197 16.8228L69.9197 17.5478L76.4447 17.5478L76.2697 17.7478ZM86.885 25.8228C85.435 25.8228 84.2933 25.4561 83.46 24.7228C82.6266 23.9728 82.21 22.9644 82.21 21.6978C82.21 20.4144 82.6266 19.4061 83.46 18.6728C84.2933 17.9394 85.4183 17.5728 86.835 17.5728L91.085 17.5728L91.085 16.1978C91.085 15.3478 90.8266 14.6978 90.31 14.2478C89.81 13.7811 89.0933 13.5478 88.16 13.5478C87.3433 13.5478 86.66 13.7228 86.11 14.0728C85.56 14.4061 85.2433 14.8644 85.16 15.4478L82.91 15.4478C83.06 14.2644 83.6183 13.3228 84.585 12.6228C85.5516 11.9228 86.76 11.5728 88.21 11.5728C89.7933 11.5728 91.0433 11.9811 91.96 12.7978C92.8766 13.6144 93.335 14.7228 93.335 16.1228L93.335 25.5728L91.135 25.5728L91.135 22.9478L90.76 22.9478L91.135 22.5728C91.135 23.5728 90.7433 24.3644 89.96 24.9478C89.1933 25.5311 88.1683 25.8228 86.885 25.8228ZM87.435 24.0478C88.5016 24.0478 89.3766 23.7811 90.06 23.2478C90.7433 22.7144 91.085 22.0311 91.085 21.1978L91.085 19.2478L86.885 19.2478C86.135 19.2478 85.5433 19.4561 85.11 19.8728C84.6766 20.2894 84.46 20.8561 84.46 21.5728C84.46 22.3394 84.7183 22.9478 85.235 23.3978C85.7683 23.8311 86.5016 24.0478 87.435 24.0478ZM104.95 25.5728C104.15 25.5728 103.45 25.4144 102.85 25.0978C102.25 24.7811 101.784 24.3311 101.45 23.7478C101.117 23.1644 100.95 22.4811 100.95 21.6978L100.95 9.37276L96.3252 9.37276L96.3252 7.32276L103.2 7.32276L103.2 21.6978C103.2 22.2644 103.359 22.7144 103.675 23.0478C103.992 23.3644 104.417 23.5228 104.95 23.5228L109.325 23.5228L109.325 25.5728L104.95 25.5728ZM119.565 25.5728C118.382 25.5728 117.457 25.2561 116.79 24.6228C116.14 23.9894 115.815 23.0978 115.815 21.9478L115.815 13.8728L111.94 13.8728L111.94 11.8228L115.815 11.8228L115.815 7.94776L118.065 7.94776L118.065 11.8228L123.565 11.8228L123.565 13.8728L118.065 13.8728L118.065 21.9478C118.065 22.9978 118.565 23.5228 119.565 23.5228L123.315 23.5228L123.315 25.5728L119.565 25.5728ZM127.856 25.5728L127.856 7.32277L130.106 7.32277L130.106 11.8228L130.106 14.4478L130.581 14.4478L130.106 14.9728C130.106 13.8894 130.431 13.0561 131.081 12.4728C131.731 11.8728 132.631 11.5728 133.781 11.5728C135.164 11.5728 136.264 11.9978 137.081 12.8478C137.897 13.6978 138.306 14.8561 138.306 16.3228L138.306 25.5728L136.056 25.5728L136.056 16.5728C136.056 15.5894 135.789 14.8311 135.256 14.2978C134.739 13.7478 134.031 13.4728 133.131 13.4728C132.197 13.4728 131.456 13.7644 130.906 14.3478C130.372 14.9311 130.106 15.7561 130.106 16.8228L130.106 25.5728L127.856 25.5728ZM163.136 25.8228C162.036 25.8228 161.078 25.6144 160.261 25.1978C159.461 24.7811 158.836 24.1811 158.386 23.3978C157.953 22.5978 157.736 21.6561 157.736 20.5728L157.736 12.3228C157.736 11.2228 157.953 10.2811 158.386 9.49777C158.836 8.71444 159.461 8.11444 160.261 7.69777C161.078 7.28111 162.036 7.07277 163.136 7.07277C164.236 7.07277 165.186 7.28944 165.986 7.72277C166.786 8.13944 167.403 8.73944 167.836 9.52277C168.269 10.3061 168.486 11.2394 168.486 12.3228L166.236 12.3228C166.236 11.2894 165.961 10.4978 165.411 9.94777C164.878 9.38111 164.119 9.09777 163.136 9.09777C162.153 9.09777 161.378 9.37277 160.811 9.92277C160.261 10.4728 159.986 11.2644 159.986 12.2978L159.986 20.5728C159.986 21.6061 160.261 22.4061 160.811 22.9728C161.378 23.5228 162.153 23.7978 163.136 23.7978C164.119 23.7978 164.878 23.5228 165.411 22.9728C165.961 22.4061 166.236 21.6061 166.236 20.5728L168.486 20.5728C168.486 21.6394 168.269 22.5728 167.836 23.3728C167.403 24.1561 166.786 24.7644 165.986 25.1978C165.186 25.6144 164.236 25.8228 163.136 25.8228ZM176.826 25.8228C175.376 25.8228 174.235 25.4561 173.401 24.7228C172.568 23.9728 172.151 22.9644 172.151 21.6978C172.151 20.4144 172.568 19.4061 173.401 18.6728C174.235 17.9394 175.36 17.5728 176.776 17.5728L181.026 17.5728L181.026 16.1978C181.026 15.3478 180.768 14.6978 180.251 14.2478C179.751 13.7811 179.035 13.5478 178.101 13.5478C177.285 13.5478 176.601 13.7228 176.051 14.0728C175.501 14.4061 175.185 14.8644 175.101 15.4478L172.851 15.4478C173.001 14.2644 173.56 13.3228 174.526 12.6228C175.493 11.9228 176.701 11.5728 178.151 11.5728C179.735 11.5728 180.985 11.9811 181.901 12.7978C182.818 13.6144 183.276 14.7228 183.276 16.1228L183.276 25.5728L181.076 25.5728L181.076 22.9478L180.701 22.9478L181.076 22.5728C181.076 23.5728 180.685 24.3644 179.901 24.9478C179.135 25.5311 178.11 25.8228 176.826 25.8228ZM177.376 24.0478C178.443 24.0478 179.318 23.7811 180.001 23.2478C180.685 22.7144 181.026 22.0311 181.026 21.1978L181.026 19.2478L176.826 19.2478C176.076 19.2478 175.485 19.4561 175.051 19.8728C174.618 20.2894 174.401 20.8561 174.401 21.5728C174.401 22.3394 174.66 22.9478 175.176 23.3978C175.71 23.8311 176.443 24.0478 177.376 24.0478ZM188.292 25.5728L188.292 11.8228L190.492 11.8228L190.492 14.4478L191.017 14.4478L190.292 16.0728C190.292 14.5894 190.608 13.4728 191.242 12.7228C191.892 11.9561 192.85 11.5728 194.117 11.5728C195.567 11.5728 196.717 12.0311 197.567 12.9478C198.433 13.8478 198.867 15.0728 198.867 16.6228L198.867 17.4478L196.617 17.4478L196.617 16.8228C196.617 15.7394 196.35 14.9144 195.817 14.3478C195.3 13.7644 194.558 13.4728 193.592 13.4728C192.642 13.4728 191.892 13.7644 191.342 14.3478C190.808 14.9311 190.542 15.7561 190.542 16.8228L190.542 25.5728L188.292 25.5728ZM208.007 25.8228C206.923 25.8228 205.973 25.6061 205.157 25.1728C204.357 24.7394 203.732 24.1311 203.282 23.3478C202.848 22.5478 202.632 21.6228 202.632 20.5728L202.632 16.8228C202.632 15.7561 202.849 14.8311 203.282 14.0478C203.732 13.2644 204.357 12.6561 205.157 12.2228C205.974 11.7894 206.924 11.5728 208.007 11.5728C209.09 11.5728 210.032 11.7894 210.832 12.2228C211.649 12.6561 212.274 13.2644 212.707 14.0478C213.157 14.8311 213.382 15.7561 213.382 16.8228L213.382 19.2478L204.832 19.2478L204.832 20.5728C204.832 21.6561 205.107 22.4894 205.657 23.0728C206.207 23.6394 206.99 23.9228 208.007 23.9228C208.873 23.9228 209.573 23.7728 210.107 23.4728C210.64 23.1561 210.965 22.6894 211.082 22.0728L213.332 22.0728C213.182 23.2228 212.615 24.1394 211.632 24.8228C210.665 25.4894 209.457 25.8228 208.007 25.8228ZM211.182 17.7478L211.182 16.8228C211.182 15.7394 210.907 14.9061 210.357 14.3228C209.824 13.7394 209.04 13.4478 208.007 13.4478C206.99 13.4478 206.207 13.7394 205.657 14.3228C205.107 14.9061 204.832 15.7394 204.832 16.8228L204.832 17.5478L211.357 17.5478L211.182 17.7478Z" fill="#0152A8"/>
<path d="M36.0422 6.72923H35.8856C35.7584 6.39104 35.5595 6.08436 35.3027 5.83022C35.0458 5.57607 34.737 5.38047 34.3975 5.25682L21.8664 0.698625C21.3101 0.49499 20.6997 0.49499 20.1434 0.698625L7.61224 5.25682C7.27272 5.38047 6.96396 5.57607 6.70711 5.83022C6.45026 6.08436 6.2514 6.39104 6.12417 6.72923H5.96753C4.63942 6.73336 3.36688 7.26278 2.42775 8.20191C1.48863 9.14103 0.959209 10.4136 0.955078 11.7417L0.955078 15.501C0.959209 16.8291 1.48863 18.1017 2.42775 19.0408C3.36688 19.9799 4.63942 20.5093 5.96753 20.5135H6.78205C7.81587 22.7691 9.80519 24.7427 12.6717 26.3404C15.9768 28.1731 19.5011 29.0033 20.488 29.2069L21.0049 29.2539L21.5218 29.2069C22.5086 29.0033 26.033 28.1731 29.3381 26.3404C32.2046 24.7427 34.1939 22.7691 35.2277 20.5135H36.0422C37.3703 20.5093 38.6429 19.9799 39.582 19.0408C40.5211 18.1017 41.0506 16.8291 41.0547 15.501V11.7417C41.0506 10.4136 40.5211 9.14103 39.582 8.20191C38.6429 7.26278 37.3703 6.73336 36.0422 6.72923ZM5.96753 18.0072C5.30284 18.0072 4.66537 17.7432 4.19536 17.2732C3.72535 16.8032 3.4613 16.1657 3.4613 15.501V11.7417C3.4613 11.077 3.72535 10.4395 4.19536 9.96951C4.66537 9.4995 5.30284 9.23546 5.96753 9.23546V16.7541C5.96709 17.1736 5.99851 17.5925 6.06151 18.0072H5.96753ZM27.2704 19.2604H14.7393C14.407 19.2604 14.0882 19.1283 13.8532 18.8933C13.6182 18.6583 13.4862 18.3396 13.4862 18.0072C13.4862 17.6749 13.6182 17.3562 13.8532 17.1212C14.0882 16.8862 14.407 16.7541 14.7393 16.7541H27.2704C27.6028 16.7541 27.9215 16.8862 28.1565 17.1212C28.3915 17.3562 28.5236 17.6749 28.5236 18.0072C28.5236 18.3396 28.3915 18.6583 28.1565 18.8933C27.9215 19.1283 27.6028 19.2604 27.2704 19.2604ZM27.2704 14.2479H14.7393C14.407 14.2479 14.0882 14.1159 13.8532 13.8809C13.6182 13.6459 13.4862 13.3271 13.4862 12.9948C13.4862 12.6624 13.6182 12.3437 13.8532 12.1087C14.0882 11.8737 14.407 11.7417 14.7393 11.7417H27.2704C27.6028 11.7417 27.9215 11.8737 28.1565 12.1087C28.3915 12.3437 28.5236 12.6624 28.5236 12.9948C28.5236 13.3271 28.3915 13.6459 28.1565 13.8809C27.9215 14.1159 27.6028 14.2479 27.2704 14.2479ZM38.5485 15.501C38.5485 16.1657 38.2844 16.8032 37.8144 17.2732C37.3444 17.7432 36.7069 18.0072 36.0422 18.0072H35.9483C36.0113 17.5925 36.0427 17.1736 36.0422 16.7541V9.23546C36.7069 9.23546 37.3444 9.4995 37.8144 9.96951C38.2844 10.4395 38.5485 11.077 38.5485 11.7417V15.501Z" fill="#0FE3AF"/>
</svg>
