<svg width="23" height="22" viewBox="0 0 23 22" fill="none" xmlns="http://www.w3.org/2000/svg">
<path d="M16.4096 1.99406C17.6384 1.9976 18.8158 2.46888 19.6847 3.305C20.5536 4.14112 21.0434 5.27412 21.047 6.45656V15.3806C21.0434 16.5631 20.5536 17.6961 19.6847 18.5322C18.8158 19.3683 17.6384 19.8396 16.4096 19.8431H7.13568C5.90688 19.8396 4.72946 19.3683 3.86057 18.5322C2.99167 17.6961 2.50191 16.5631 2.49824 15.3806V6.45656C2.50191 5.27412 2.99167 4.14112 3.86057 3.305C4.72946 2.46888 5.90688 1.9976 7.13568 1.99406H16.4096ZM16.4096 0.209351H7.13568C3.56494 0.209351 0.643555 3.02053 0.643555 6.45656V15.3806C0.643555 18.8167 3.56494 21.6278 7.13568 21.6278H16.4096C19.9803 21.6278 22.9017 18.8167 22.9017 15.3806V6.45656C22.9017 3.02053 19.9803 0.209351 16.4096 0.209351Z" fill="#0152A8"/>
<path d="M17.8006 6.45697C17.5255 6.45697 17.2565 6.37846 17.0278 6.23137C16.799 6.08428 16.6207 5.87521 16.5154 5.6306C16.4101 5.38599 16.3826 5.11683 16.4362 4.85716C16.4899 4.59749 16.6224 4.35896 16.817 4.17175C17.0115 3.98453 17.2594 3.85704 17.5292 3.80539C17.7991 3.75373 18.0788 3.78024 18.333 3.88156C18.5872 3.98288 18.8045 4.15446 18.9573 4.3746C19.1102 4.59474 19.1918 4.85356 19.1918 5.11832C19.1922 5.29422 19.1564 5.46846 19.0867 5.63105C19.0169 5.79363 18.9144 5.94135 18.7852 6.06573C18.6559 6.19011 18.5024 6.2887 18.3335 6.35584C18.1645 6.42298 17.9834 6.45735 17.8006 6.45697ZM11.7725 7.34909C12.5063 7.34909 13.2236 7.55846 13.8336 7.95073C14.4437 8.34299 14.9192 8.90054 15.2 9.55285C15.4808 10.2052 15.5543 10.923 15.4111 11.6154C15.268 12.3079 14.9146 12.944 14.3958 13.4433C13.877 13.9426 13.2159 14.2826 12.4963 14.4203C11.7767 14.5581 11.0307 14.4874 10.3528 14.2172C9.67496 13.947 9.09556 13.4894 8.68791 12.9023C8.28027 12.3153 8.06269 11.6251 8.06269 10.919C8.06374 9.97251 8.45494 9.06508 9.15044 8.39581C9.84595 7.72654 10.789 7.3501 11.7725 7.34909ZM11.7725 5.56438C10.672 5.56438 9.59614 5.87842 8.68106 6.46679C7.76597 7.05517 7.05275 7.89144 6.63159 8.86987C6.21042 9.8483 6.10022 10.9249 6.31493 11.9636C6.52964 13.0023 7.05961 13.9564 7.83783 14.7053C8.61604 15.4541 9.60755 15.9641 10.687 16.1707C11.7664 16.3773 12.8852 16.2713 13.902 15.866C14.9188 15.4607 15.7879 14.7744 16.3993 13.8939C17.0107 13.0133 17.3371 11.978 17.3371 10.919C17.3371 9.49886 16.7508 8.13689 15.7073 7.13271C14.6637 6.12852 13.2484 5.56438 11.7725 5.56438Z" fill="#0152A8"/>
</svg>
