<svg width="196" height="34" viewBox="0 0 196 34" fill="none" xmlns="http://www.w3.org/2000/svg">
<path d="M49.2983 24.436C48.8589 24.436 48.4398 24.4564 48.041 24.4971C47.6422 24.5296 47.2028 24.5459 46.7227 24.5459L46.2344 24.5459C46.1611 24.5459 46.1082 24.5011 46.0757 24.4116C46.0431 24.314 46.0269 24.2407 46.0269 24.1919C46.0269 24.1105 46.035 24.0413 46.0513 23.9844C46.0757 23.9193 46.1164 23.8826 46.1733 23.8745C46.2629 23.8501 46.3686 23.8298 46.4907 23.8135C46.6128 23.7972 46.7389 23.785 46.8691 23.7769C46.9993 23.7606 47.1214 23.7524 47.2353 23.7524C47.3574 23.7443 47.4632 23.7402 47.5527 23.7402C47.748 23.7402 47.9352 23.6955 48.1143 23.606C48.3014 23.5164 48.452 23.4066 48.5659 23.2764C48.6473 23.1706 48.7165 23.0688 48.7734 22.9712C48.8304 22.8654 48.8792 22.723 48.9199 22.5439C48.9687 22.3649 49.0054 22.133 49.0298 21.8481C49.0623 21.5633 49.0949 21.189 49.1274 20.7251L49.7012 10.2515C49.7012 9.99919 49.6727 9.74691 49.6157 9.49463C49.5588 9.23421 49.4652 8.99414 49.335 8.77441C49.2129 8.54655 49.0501 8.35124 48.8467 8.18848C48.6432 8.02572 48.395 7.91178 48.102 7.84668C48.0776 7.83854 48.0125 7.8304 47.9067 7.82227C47.8009 7.80599 47.687 7.78971 47.5649 7.77344C47.4429 7.75716 47.3289 7.74495 47.2231 7.73682C47.1173 7.72054 47.0482 7.7124 47.0156 7.7124C46.8529 7.67985 46.7227 7.6473 46.625 7.61475C46.5355 7.58219 46.4907 7.48047 46.4907 7.30957C46.4907 7.23633 46.4948 7.16716 46.5029 7.10205C46.5111 7.02881 46.5436 6.99219 46.6006 6.99219L47.1011 6.99219C47.3127 6.99219 47.508 7.00033 47.687 7.0166C47.8742 7.03288 48.0614 7.05322 48.2485 7.07764C48.4357 7.10205 48.631 7.1224 48.8345 7.13867C49.0461 7.15495 49.278 7.16309 49.5303 7.16309L50.6899 7.16309C50.8283 7.16309 50.9544 7.15495 51.0684 7.13867C51.1904 7.11426 51.3491 7.10205 51.5444 7.10205C51.6909 7.10205 51.8455 7.1224 52.0083 7.16309C52.1711 7.19564 52.2891 7.26888 52.3623 7.38281C52.5006 7.54557 52.6187 7.72868 52.7163 7.93213C52.814 8.12744 52.8994 8.33496 52.9727 8.55469L57.0742 19.3457C57.1068 19.4271 57.1393 19.4963 57.1719 19.5532C57.2044 19.6021 57.241 19.6265 57.2817 19.6265C57.3387 19.6265 57.3835 19.5939 57.416 19.5288C57.4486 19.4637 57.473 19.4027 57.4893 19.3457L62.1035 7.24854C62.1523 7.15902 62.2215 7.10205 62.311 7.07764C62.4087 7.05323 62.5145 7.04102 62.6284 7.04102C63.0353 7.04102 63.4259 7.03288 63.8003 7.0166C64.1828 7.00033 64.5612 6.97998 64.9355 6.95557C65.318 6.93116 65.7005 6.91081 66.083 6.89453C66.4736 6.87826 66.8846 6.87012 67.3159 6.87012C67.3403 6.87012 67.3729 6.87012 67.4136 6.87012C67.4624 6.87012 67.5072 6.87826 67.5479 6.89454C67.5967 6.90267 67.6374 6.91895 67.6699 6.94336C67.7025 6.96778 67.7187 7.00033 67.7187 7.04102C67.7187 7.15495 67.6699 7.27295 67.5723 7.39502C67.4746 7.50896 67.3525 7.56592 67.2061 7.56592C66.7992 7.56592 66.4614 7.61475 66.1929 7.71241C65.9243 7.81006 65.6517 8.00944 65.375 8.31055C65.2529 8.43262 65.1553 8.57097 65.082 8.72559C65.0088 8.88021 64.9478 9.04704 64.8989 9.22608C64.8582 9.39698 64.8298 9.57601 64.8135 9.76319C64.8053 9.94222 64.8013 10.1172 64.8013 10.2881L64.9966 23.3252C65.0535 23.4961 65.1919 23.6141 65.4116 23.6792C65.6313 23.7443 65.8755 23.7891 66.144 23.8135C66.4126 23.8298 66.673 23.846 66.9253 23.8623C67.1857 23.8704 67.3851 23.9071 67.5234 23.9722C67.6211 24.0129 67.6781 24.0658 67.6943 24.1309C67.7106 24.1878 67.7187 24.2407 67.7187 24.2896C67.7187 24.4198 67.6496 24.5011 67.5112 24.5337C67.381 24.5581 67.202 24.5703 66.9741 24.5703C66.7137 24.5703 66.4696 24.5662 66.2417 24.5581C66.0138 24.55 65.786 24.5459 65.5581 24.5459C65.3384 24.5378 65.1064 24.5296 64.8623 24.5215C64.6182 24.5133 64.3455 24.5093 64.0444 24.5093L62.1768 24.5093C61.9408 24.5093 61.7129 24.5133 61.4932 24.5215C61.2734 24.5215 61.0537 24.5296 60.834 24.5459C60.5736 24.5703 60.3131 24.5825 60.0527 24.5825C59.9876 24.5825 59.9185 24.5785 59.8452 24.5703C59.7801 24.5703 59.715 24.5581 59.6499 24.5337C59.5929 24.5093 59.5441 24.4727 59.5034 24.4238C59.4709 24.3669 59.4546 24.2936 59.4546 24.2041C59.4546 24.0413 59.5563 23.9355 59.7598 23.8867C59.9632 23.8298 60.2074 23.8013 60.4922 23.8013L61.0049 23.8013C61.1758 23.8013 61.3345 23.7972 61.481 23.7891C61.6356 23.7809 61.7699 23.7565 61.8838 23.7158C61.9977 23.6751 62.0872 23.6182 62.1523 23.5449C62.2256 23.4635 62.2622 23.3537 62.2622 23.2153L62.1035 10.2515C62.1035 10.2108 62.0954 10.1538 62.0791 10.0806C62.0628 10.0073 62.0343 9.97071 61.9937 9.97071C61.9367 9.97071 61.8919 9.98291 61.8594 10.0073C61.835 10.0236 61.8146 10.0399 61.7983 10.0562L56.3296 24.2896C56.297 24.4198 56.2482 24.4849 56.1831 24.4849C56.118 24.4849 56.061 24.4198 56.0122 24.2896L50.5679 9.93408C50.5435 9.83643 50.4946 9.7876 50.4214 9.7876C50.3888 9.7876 50.3603 9.79574 50.3359 9.81201C50.3197 9.82829 50.3115 9.86898 50.3115 9.93408L49.9941 21.5918C49.9941 21.6895 49.9982 21.8197 50.0063 21.9824C50.0226 22.137 50.043 22.2998 50.0674 22.4707C50.0999 22.6416 50.1366 22.8084 50.1772 22.9712C50.2261 23.134 50.2871 23.2723 50.3603 23.3862C50.4661 23.5571 50.6248 23.6833 50.8364 23.7646C51.0561 23.8379 51.2881 23.8908 51.5322 23.9233C51.7845 23.9478 52.0327 23.964 52.2769 23.9722C52.5291 23.9803 52.7407 23.9966 52.9116 24.021C53.0093 24.0291 53.0744 24.0658 53.1069 24.1309C53.1476 24.196 53.168 24.2651 53.168 24.3384C53.168 24.3872 53.1395 24.4279 53.0825 24.4605C53.0337 24.493 52.9686 24.5215 52.8872 24.5459C52.814 24.5622 52.7285 24.5703 52.6309 24.5703C52.5332 24.5785 52.4437 24.5825 52.3623 24.5825C52.0612 24.5825 51.7804 24.5744 51.52 24.5581C51.2596 24.5418 51.0073 24.5256 50.7632 24.5093C50.519 24.493 50.279 24.4767 50.043 24.4604C49.807 24.4442 49.5588 24.436 49.2983 24.436ZM73.5537 18.4424L75.6411 18.3569C75.9666 18.3325 76.2148 18.2552 76.3857 18.125C76.5566 17.9867 76.6828 17.8239 76.7642 17.6367C76.8537 17.4414 76.9188 17.2298 76.9595 17.002C77.0083 16.7741 77.0775 16.5503 77.167 16.3306C77.1914 16.2329 77.2321 16.1841 77.2891 16.1841C77.403 16.1841 77.46 16.2126 77.46 16.2695L77.46 16.7578C77.46 17.0833 77.4437 17.4373 77.4111 17.8198C77.3867 18.1942 77.3745 18.5156 77.3745 18.7842C77.3745 19.0446 77.3949 19.3213 77.4355 19.6143C77.4844 19.9072 77.5088 20.2083 77.5088 20.5176C77.5088 20.5583 77.5047 20.6234 77.4966 20.7129C77.4884 20.8024 77.4762 20.896 77.46 20.9937C77.4437 21.0913 77.4193 21.1768 77.3867 21.25C77.3623 21.3232 77.3257 21.3599 77.2769 21.3599C77.1873 21.3599 77.1304 21.3192 77.106 21.2378C77.0897 21.1483 77.0734 21.0669 77.0571 20.9937C77.0408 20.896 77.0124 20.778 76.9717 20.6397C76.931 20.5013 76.8862 20.363 76.8374 20.2246C76.7886 20.0781 76.7438 19.9479 76.7031 19.834C76.6624 19.7201 76.6339 19.6427 76.6177 19.6021C76.5444 19.4556 76.402 19.3416 76.1904 19.2603C75.9788 19.1707 75.7388 19.1056 75.4702 19.0649C75.2098 19.0161 74.9372 18.9876 74.6523 18.9795C74.3756 18.9632 74.1315 18.9551 73.9199 18.9551L73.5537 18.9551C73.4235 18.9551 73.3421 18.9836 73.3096 19.0405C73.277 19.0894 73.2607 19.1707 73.2607 19.2847L73.2607 23.5693C73.2607 23.8135 73.338 23.9681 73.4927 24.0332L77.2036 24.0332C77.3664 24.0332 77.5332 24.0332 77.7041 24.0332C77.8831 24.0251 78.0011 24.0047 78.0581 23.9722C78.1802 23.9396 78.2819 23.8704 78.3633 23.7647C78.4528 23.6507 78.526 23.5449 78.583 23.4473C78.6074 23.4066 78.6522 23.3211 78.7173 23.1909C78.7905 23.0607 78.8638 22.9224 78.937 22.7759C79.0184 22.6213 79.0916 22.4788 79.1567 22.3486C79.23 22.2184 79.2829 22.133 79.3154 22.0923C79.3643 21.9946 79.4456 21.9458 79.5596 21.9458C79.6328 21.9458 79.6857 21.9743 79.7183 22.0313L79.7183 23.8501C79.7183 23.9233 79.7101 23.9925 79.6938 24.0576C79.6857 24.1146 79.6735 24.1878 79.6572 24.2773C79.6247 24.3913 79.584 24.4686 79.5352 24.5093C79.4863 24.5418 79.3927 24.5744 79.2544 24.6069C78.4325 24.6069 77.6512 24.6029 76.9106 24.5947C76.1782 24.5866 75.4336 24.5785 74.6768 24.5703C73.9199 24.5703 73.1224 24.5662 72.2842 24.5581C71.446 24.55 70.5101 24.5459 69.4766 24.5459C69.3382 24.5459 69.269 24.4767 69.269 24.3384C69.269 24.2489 69.3138 24.1797 69.4033 24.1309C69.4928 24.082 69.5742 24.0495 69.6475 24.0332C69.6963 24.0332 69.7736 24.0291 69.8794 24.021C69.9933 24.0129 70.1154 24.0088 70.2456 24.0088C70.3758 24.0007 70.5019 23.9925 70.624 23.9844C70.7461 23.9762 70.8519 23.9722 70.9414 23.9722C71.1367 23.9722 71.2344 23.8176 71.2344 23.5083L71.2344 14.4995C71.2344 14.3612 71.2181 14.1903 71.1855 13.9868C71.1611 13.7834 71.1082 13.6125 71.0269 13.4741C70.9699 13.4334 70.9414 13.4131 70.9414 13.4131L69.2324 13.2422C69.0778 13.2422 69.0005 13.1649 69.0005 13.0103C69.0005 12.9696 69.0086 12.9207 69.0249 12.8638C69.0412 12.7987 69.0941 12.7661 69.1836 12.7661L71.1855 12.7661C71.9668 12.7661 72.7358 12.762 73.4927 12.7539C74.2495 12.7458 74.9453 12.7417 75.5801 12.7417L77.3135 12.7417C77.4437 12.7417 77.578 12.7458 77.7163 12.7539C77.8628 12.7539 78.0011 12.758 78.1313 12.7661C78.2616 12.7661 78.3796 12.7702 78.4853 12.7783C78.5911 12.7783 78.6725 12.7783 78.7295 12.7783C78.7865 12.7865 78.8312 12.8149 78.8638 12.8638C78.8963 12.9126 78.9167 12.9736 78.9248 13.0469C78.9411 13.112 78.9492 13.1812 78.9492 13.2544C78.9574 13.3195 78.9614 13.3724 78.9614 13.4131L78.9614 15.4028C78.9614 15.4761 78.9329 15.5127 78.876 15.5127C78.7865 15.5127 78.7173 15.4557 78.6685 15.3418C78.6278 15.2197 78.5627 15.0773 78.4731 14.9146C78.3999 14.7355 78.3104 14.5565 78.2046 14.3774C78.0988 14.1984 78.0215 14.0601 77.9727 13.9624C77.8994 13.8241 77.7855 13.7183 77.6309 13.645C77.4844 13.5636 77.3175 13.5026 77.1304 13.4619C76.9432 13.4131 76.752 13.3765 76.5566 13.3521C76.3613 13.3276 76.1904 13.2992 76.0439 13.2666C75.9951 13.2666 75.869 13.2625 75.6655 13.2544C75.4621 13.2463 75.2301 13.2422 74.9697 13.2422C74.7174 13.2341 74.4652 13.2259 74.2129 13.2178C73.9687 13.2096 73.7775 13.2056 73.6392 13.2056C73.4683 13.2056 73.3625 13.2544 73.3218 13.3521C73.2811 13.4497 73.2607 13.5962 73.2607 13.7915L73.2607 18.1494C73.2607 18.2227 73.2852 18.2918 73.334 18.3569C73.3909 18.4139 73.4642 18.4424 73.5537 18.4424ZM81.2075 24.3384C81.2075 24.2814 81.236 24.2326 81.293 24.1919C81.3581 24.1512 81.4313 24.1187 81.5127 24.0942C81.5941 24.0698 81.6673 24.0536 81.7324 24.0454C81.8057 24.0291 81.8545 24.021 81.8789 24.021L82.1597 24.021C82.2573 24.021 82.359 24.0169 82.4648 24.0088C82.5788 24.0007 82.6886 23.9925 82.7944 23.9844C82.9002 23.9681 82.9897 23.9518 83.063 23.9356C83.1444 23.9193 83.2013 23.8989 83.2339 23.8745C83.3315 23.7769 83.3804 23.5287 83.3804 23.1299L83.3804 13.7915C83.3804 13.523 83.3112 13.3765 83.1728 13.3521C82.9124 13.3276 82.6073 13.3154 82.2573 13.3154C82.0783 13.3154 81.9115 13.3073 81.7568 13.291C81.6103 13.2666 81.4679 13.2381 81.3296 13.2056C81.2482 13.1812 81.2075 13.1323 81.2075 13.0591C81.2645 12.9289 81.3499 12.8475 81.4639 12.8149C81.5859 12.7824 81.7121 12.7661 81.8423 12.7661C82.1271 12.7661 82.4282 12.7824 82.7456 12.8149C83.063 12.8394 83.3315 12.8516 83.5513 12.8516C84.0884 12.8516 84.6418 12.8394 85.2114 12.8149C85.7892 12.7824 86.4403 12.7661 87.1645 12.7661C87.5145 12.7661 87.8522 12.7702 88.1777 12.7783C88.5114 12.7865 88.841 12.8109 89.1665 12.8516C89.2642 12.8678 89.3984 12.9045 89.5693 12.9614C89.7484 13.0103 89.9315 13.0672 90.1187 13.1323C90.314 13.1974 90.493 13.2666 90.6558 13.3399C90.8267 13.405 90.9487 13.4579 91.022 13.4985C92.0392 14.0519 92.8083 14.764 93.3291 15.6348C93.8499 16.4974 94.1103 17.5676 94.1103 18.8452C94.0859 19.187 94.0534 19.5166 94.0127 19.834C93.972 20.1514 93.8947 20.4688 93.7808 20.7861C93.675 21.0954 93.5122 21.4087 93.2925 21.7261C93.0728 22.0435 92.7676 22.3771 92.3769 22.7271C92.1572 22.9061 91.9253 23.0729 91.6811 23.2275C91.437 23.3822 91.1969 23.5205 90.9609 23.6426C90.7331 23.7647 90.5174 23.8705 90.314 23.96C90.1186 24.0413 89.9477 24.1024 89.8013 24.1431C89.4025 24.2407 89.02 24.318 88.6538 24.375C88.2876 24.432 87.9255 24.4727 87.5674 24.4971C87.2093 24.5215 86.8431 24.5378 86.4687 24.5459C86.1025 24.5459 85.716 24.5459 85.3091 24.5459L83.2095 24.5459L81.3784 24.5459C81.2645 24.5215 81.2075 24.4523 81.2075 24.3384ZM85.3213 23.3618C85.3213 23.5002 85.3254 23.6263 85.3335 23.7402C85.3498 23.846 85.3945 23.9193 85.4678 23.96C85.5329 23.9762 85.6183 23.9925 85.7241 24.0088C85.838 24.0169 85.9601 24.0251 86.0903 24.0332C86.2287 24.0332 86.363 24.0332 86.4932 24.0332C86.6315 24.0332 86.7576 24.0332 86.8716 24.0332C87.2622 24.0332 87.6081 24.0047 87.9092 23.9478C88.2184 23.8827 88.4951 23.7972 88.7393 23.6914C88.9915 23.5856 89.2153 23.4635 89.4106 23.3252C89.6141 23.1787 89.8094 23.0282 89.9966 22.8735C90.2895 22.605 90.5459 22.3202 90.7656 22.0191C90.9935 21.7179 91.1807 21.3924 91.3271 21.0425C91.4818 20.6844 91.5957 20.2979 91.6689 19.8828C91.7503 19.4596 91.791 18.9917 91.791 18.479C91.791 18.0965 91.7666 17.7425 91.7178 17.417C91.6689 17.0833 91.5876 16.77 91.4736 16.4771C91.3678 16.1841 91.2254 15.9033 91.0464 15.6348C90.8673 15.3662 90.6517 15.0977 90.3994 14.8291C90.1146 14.5361 89.8094 14.2839 89.4839 14.0723C89.1665 13.8525 88.8328 13.6776 88.4829 13.5474C88.133 13.409 87.779 13.3073 87.4209 13.2422C87.071 13.1771 86.7251 13.1445 86.3833 13.1445C86.1717 13.1445 85.9764 13.173 85.7974 13.23C85.6183 13.2788 85.4596 13.405 85.3213 13.6084L85.3213 23.3618ZM99.6645 13.523L99.6645 23.0933C99.6645 23.134 99.6686 23.195 99.6768 23.2764C99.6849 23.3578 99.6971 23.4432 99.7134 23.5327C99.7378 23.6141 99.7703 23.6873 99.811 23.7525C99.8517 23.8176 99.9087 23.8501 99.9819 23.8501L101.325 23.8501C101.414 23.8501 101.487 23.8867 101.544 23.96C101.61 24.0332 101.642 24.1146 101.642 24.2041C101.642 24.2774 101.605 24.3547 101.532 24.436C101.459 24.5093 101.386 24.5459 101.312 24.5459L97.4795 24.5459C97.3167 24.5459 97.154 24.55 96.9912 24.5581C96.8284 24.5744 96.6494 24.5825 96.4541 24.5825C96.3402 24.5825 96.2303 24.5785 96.1245 24.5703C96.0187 24.5622 95.9211 24.5459 95.8315 24.5215C95.7827 24.4889 95.7583 24.4116 95.7583 24.2896C95.7583 24.1187 95.799 24.021 95.8804 23.9966C96.0838 23.964 96.2588 23.9396 96.4053 23.9233C96.5518 23.8989 96.7064 23.8867 96.8691 23.8867C96.9993 23.8867 97.0889 23.8867 97.1377 23.8867C97.1947 23.8786 97.2598 23.8664 97.333 23.8501C97.4469 23.8013 97.5039 23.6304 97.5039 23.3374L97.5039 13.6084C97.5039 13.5108 97.4551 13.4253 97.3574 13.3521C97.2679 13.2707 97.1784 13.23 97.0889 13.23C96.9017 13.23 96.7552 13.2463 96.6494 13.2788C96.5518 13.3032 96.4215 13.3154 96.2588 13.3154C96.153 13.3154 96.0472 13.3073 95.9414 13.291C95.8356 13.2666 95.7298 13.2381 95.624 13.2056C95.5671 13.1812 95.5386 13.1323 95.5386 13.0591C95.5142 12.9533 95.5223 12.8678 95.563 12.8027C95.6118 12.7376 95.6769 12.6888 95.7583 12.6563C95.8397 12.6156 95.9292 12.5912 96.0269 12.583C96.1326 12.5749 96.2303 12.5708 96.3198 12.5708L100.714 12.5708C100.926 12.5708 101.06 12.5708 101.117 12.5708C101.174 12.5708 101.211 12.5789 101.227 12.5952C101.382 12.6196 101.459 12.7092 101.459 12.8638C101.459 13.0347 101.365 13.1445 101.178 13.1934C100.991 13.2422 100.784 13.2707 100.556 13.2788C100.336 13.287 100.132 13.3032 99.9453 13.3276C99.7581 13.3439 99.6645 13.409 99.6645 13.523ZM112.14 13.0957L112.14 15.7813C112.14 15.8789 112.112 15.9684 112.055 16.0498C112.006 16.1231 111.937 16.1597 111.847 16.1597C111.725 16.1597 111.615 16.1027 111.518 15.9888C111.428 15.8748 111.347 15.7446 111.273 15.5982C111.2 15.4435 111.131 15.2889 111.066 15.1343C111.009 14.9797 110.952 14.8576 110.895 14.7681C110.805 14.646 110.72 14.5402 110.639 14.4507C110.565 14.353 110.484 14.2676 110.395 14.1943C110.305 14.113 110.207 14.0397 110.102 13.9746C109.996 13.9095 109.878 13.8444 109.748 13.7793C109.552 13.6817 109.328 13.6043 109.076 13.5474C108.832 13.4904 108.543 13.4619 108.209 13.4619C107.884 13.4619 107.554 13.5433 107.221 13.7061C106.887 13.8607 106.618 14.0804 106.415 14.3652C106.26 14.5768 106.118 14.821 105.988 15.0977C105.866 15.3744 105.756 15.6755 105.658 16.001C105.569 16.3184 105.5 16.652 105.451 17.002C105.402 17.3438 105.377 17.6815 105.377 18.0151C105.377 18.1128 105.386 18.2878 105.402 18.54C105.418 18.7842 105.447 19.0609 105.487 19.3701C105.536 19.6794 105.601 19.9968 105.683 20.3223C105.772 20.6478 105.89 20.9367 106.037 21.189C106.346 21.7993 106.757 22.2998 107.27 22.6904C107.79 23.0811 108.393 23.2845 109.076 23.3008C109.28 23.3008 109.475 23.2764 109.662 23.2276C109.857 23.1787 110.036 23.1177 110.199 23.0444C110.232 23.0282 110.285 22.9956 110.358 22.9468C110.431 22.898 110.508 22.8451 110.59 22.7881C110.671 22.723 110.749 22.6579 110.822 22.5928C110.903 22.5277 110.964 22.4748 111.005 22.4341C111.111 22.312 111.208 22.1777 111.298 22.0313C111.387 21.8848 111.461 21.7424 111.518 21.604C111.583 21.4575 111.636 21.3273 111.676 21.2134C111.717 21.0913 111.745 20.9977 111.762 20.9326C111.786 20.835 111.863 20.7861 111.994 20.7861C112.034 20.7861 112.067 20.8065 112.091 20.8472C112.116 20.8879 112.132 20.9367 112.14 20.9937C112.156 21.0425 112.165 21.0913 112.165 21.1401C112.173 21.189 112.177 21.2256 112.177 21.25C112.177 21.7464 112.067 22.194 111.847 22.5928C111.636 22.9915 111.347 23.3333 110.98 23.6182C110.631 23.903 110.252 24.1309 109.845 24.3018C109.438 24.4645 109.007 24.5459 108.551 24.5459C107.99 24.5459 107.473 24.4808 107.001 24.3506C106.537 24.2123 106.114 24.0291 105.731 23.8013C105.357 23.5653 105.023 23.2886 104.73 22.9712C104.446 22.6457 104.197 22.2957 103.986 21.9214C103.725 21.4657 103.518 20.9448 103.363 20.3589C103.217 19.773 103.144 19.2033 103.144 18.6499C103.144 17.7629 103.343 16.9369 103.742 16.1719C104.14 15.3988 104.722 14.6704 105.487 13.9868C105.943 13.6043 106.403 13.3073 106.867 13.0957C107.339 12.8841 107.872 12.7783 108.466 12.7783C108.702 12.7783 108.922 12.7905 109.125 12.815C109.337 12.8312 109.548 12.8678 109.76 12.9248C109.979 12.9736 110.207 13.0428 110.443 13.1323C110.679 13.2219 110.944 13.3317 111.237 13.4619C111.245 13.4701 111.269 13.4741 111.31 13.4741C111.408 13.4741 111.481 13.4456 111.53 13.3887C111.579 13.3317 111.619 13.2666 111.652 13.1934C111.693 13.1201 111.733 13.055 111.774 12.9981C111.815 12.9411 111.88 12.9126 111.969 12.9126C112.002 12.9126 112.038 12.933 112.079 12.9736C112.12 13.0143 112.14 13.055 112.14 13.0957ZM113.092 24.2041C113.092 24.1716 113.117 24.1227 113.166 24.0576C113.206 23.9925 113.271 23.96 113.361 23.96C113.491 23.96 113.629 23.9396 113.776 23.8989C113.93 23.8582 114.077 23.7972 114.215 23.7158C114.362 23.6263 114.496 23.5165 114.618 23.3862C114.748 23.2479 114.858 23.0851 114.948 22.898L118.183 15.2319C118.191 15.2157 118.207 15.179 118.231 15.1221C118.264 15.057 118.28 15.0041 118.28 14.9634C118.28 14.8739 118.26 14.7844 118.219 14.6948C118.179 14.6053 118.13 14.5239 118.073 14.4507C118.024 14.3693 117.979 14.3001 117.938 14.2432C117.898 14.1781 117.877 14.1211 117.877 14.0723C117.877 13.9909 117.906 13.9258 117.963 13.877C118.02 13.8281 118.085 13.7915 118.158 13.7671C118.24 13.7346 118.325 13.7142 118.415 13.7061C118.504 13.6979 118.581 13.6857 118.646 13.6694C118.72 13.6369 118.801 13.584 118.891 13.5108C118.98 13.4294 119.053 13.3643 119.11 13.3154C119.135 13.2748 119.155 13.2219 119.171 13.1568C119.188 13.0916 119.204 13.0306 119.22 12.9736C119.245 12.9167 119.273 12.8679 119.306 12.8272C119.346 12.7865 119.399 12.7661 119.464 12.7661C119.627 12.7661 119.725 12.8353 119.757 12.9736L123.249 23.4229C123.297 23.5775 123.35 23.6996 123.407 23.7891C123.472 23.8705 123.55 23.9315 123.639 23.9722C123.729 24.0129 123.826 24.0373 123.932 24.0454C124.046 24.0536 124.176 24.0576 124.323 24.0576L124.762 24.0576C124.835 24.0576 124.892 24.0658 124.933 24.082C124.974 24.082 125.019 24.1105 125.067 24.1675C125.124 24.2245 125.153 24.2733 125.153 24.314C125.153 24.4442 125.08 24.5134 124.933 24.5215C124.917 24.5378 124.86 24.5459 124.762 24.5459L124.066 24.5459C123.83 24.5459 123.558 24.5337 123.249 24.5093C122.939 24.4767 122.63 24.4605 122.321 24.4605C121.816 24.4605 121.328 24.4767 120.856 24.5093C120.384 24.5337 119.965 24.5459 119.599 24.5459C119.558 24.5459 119.513 24.5378 119.464 24.5215C119.424 24.5052 119.403 24.4727 119.403 24.4238C119.403 24.375 119.424 24.3262 119.464 24.2774C119.505 24.2285 119.554 24.1838 119.611 24.1431C119.668 24.0943 119.729 24.0576 119.794 24.0332C119.867 24.0088 119.932 23.9966 119.989 23.9966C120.071 23.9966 120.152 24.0007 120.233 24.0088C120.315 24.0169 120.404 24.021 120.502 24.021C120.762 24.021 120.974 23.9925 121.137 23.9356C121.275 23.8867 121.344 23.7891 121.344 23.6426C121.344 23.6263 121.34 23.606 121.332 23.5816C121.324 23.5571 121.316 23.5205 121.308 23.4717C121.275 23.3985 121.222 23.2642 121.149 23.0689C121.076 22.8654 120.998 22.6457 120.917 22.4097C120.836 22.1737 120.754 21.9458 120.673 21.7261C120.6 21.5064 120.543 21.3355 120.502 21.2134C120.469 21.1401 120.433 21.071 120.392 21.0059C120.36 20.9326 120.298 20.896 120.209 20.896L116.779 20.896C116.575 20.896 116.445 20.9937 116.388 21.189L115.9 22.959C115.884 23.016 115.871 23.0648 115.863 23.1055C115.855 23.1462 115.851 23.2031 115.851 23.2764C115.851 23.4066 115.859 23.5124 115.875 23.5938C115.9 23.667 115.932 23.728 115.973 23.7769C116.022 23.8257 116.083 23.8623 116.156 23.8867C116.238 23.903 116.339 23.9193 116.461 23.9356C116.502 23.9356 116.567 23.9437 116.657 23.96C116.754 23.9681 116.856 23.9803 116.962 23.9966C117.068 24.0129 117.165 24.0291 117.255 24.0454C117.353 24.0536 117.422 24.0576 117.462 24.0576C117.503 24.0739 117.56 24.1146 117.633 24.1797C117.715 24.2367 117.755 24.3018 117.755 24.375C117.755 24.4157 117.739 24.4564 117.707 24.4971C117.674 24.5296 117.613 24.5459 117.523 24.5459L117.145 24.5459C117.015 24.5459 116.836 24.5418 116.608 24.5337C116.388 24.5256 116.164 24.5215 115.937 24.5215C115.717 24.5215 115.452 24.5256 115.143 24.5337C114.834 24.5418 114.516 24.5459 114.191 24.5459C114.15 24.5459 114.069 24.5418 113.947 24.5337C113.825 24.5174 113.699 24.4971 113.568 24.4727C113.446 24.4401 113.336 24.4035 113.239 24.3628C113.141 24.314 113.092 24.2611 113.092 24.2041ZM116.864 19.8096C116.856 19.8259 116.852 19.8706 116.852 19.9439L116.852 20.0049C116.852 20.0944 116.876 20.1717 116.925 20.2368C116.982 20.2938 117.055 20.3223 117.145 20.3223C117.641 20.3223 118.109 20.3426 118.549 20.3833C118.996 20.4159 119.428 20.4321 119.843 20.4321C119.932 20.4321 120.001 20.4077 120.05 20.3589C120.099 20.3019 120.124 20.249 120.124 20.2002L120.124 20.0659C120.124 20.0497 120.119 20.0334 120.111 20.0171C120.095 19.9927 120.083 19.952 120.075 19.895L118.769 16.1841C118.703 16.0132 118.626 15.9277 118.537 15.9277C118.496 15.9277 118.451 15.944 118.402 15.9766C118.354 16.0091 118.321 16.0417 118.305 16.0742L116.864 19.8096ZM125.91 24.314C125.91 24.1268 125.991 24.021 126.154 23.9966L126.618 23.9966C126.764 23.9966 126.898 23.9966 127.021 23.9966C127.143 23.9885 127.248 23.9722 127.338 23.9478C127.427 23.9234 127.497 23.8827 127.545 23.8257C127.602 23.7687 127.631 23.6914 127.631 23.5938L127.631 13.7549C127.631 13.6654 127.594 13.5921 127.521 13.5352C127.448 13.4701 127.366 13.4375 127.277 13.4375L126.41 13.4375L126.178 13.4375C126.138 13.4375 126.089 13.4334 126.032 13.4253C125.975 13.4172 125.91 13.409 125.836 13.4009C125.796 13.3846 125.759 13.3521 125.727 13.3032C125.702 13.2544 125.69 13.2096 125.69 13.169C125.69 13.0143 125.788 12.937 125.983 12.937L128.986 12.937C129.01 12.937 129.071 12.933 129.169 12.9248C129.275 12.9167 129.385 12.9085 129.499 12.9004C129.612 12.8923 129.714 12.8841 129.804 12.876C129.893 12.8679 129.946 12.8638 129.962 12.8638C130.076 12.8556 130.202 12.8475 130.341 12.8394C130.487 12.8312 130.605 12.8272 130.695 12.8272C130.719 12.8272 130.764 12.8312 130.829 12.8394C130.894 12.8394 130.963 12.8434 131.037 12.8516C131.11 12.8516 131.179 12.8556 131.244 12.8638C131.317 12.8638 131.366 12.8638 131.391 12.8638C131.505 12.8882 131.562 12.9533 131.562 13.0591C131.562 13.1486 131.533 13.2381 131.476 13.3277C131.427 13.3846 131.35 13.4131 131.244 13.4131L129.901 13.4131C129.844 13.4131 129.8 13.4457 129.767 13.5108C129.735 13.5677 129.706 13.641 129.682 13.7305C129.665 13.8119 129.653 13.8973 129.645 13.9868C129.645 14.0763 129.645 14.1537 129.645 14.2188C129.645 14.6419 129.665 15.0651 129.706 15.4883C129.747 15.9033 129.767 16.3794 129.767 16.9165L129.767 23.6548C129.767 23.7118 129.779 23.7809 129.804 23.8623C129.836 23.9356 129.889 23.9722 129.962 23.9722L133.869 23.9722C134.088 23.9722 134.296 23.8745 134.491 23.6792C134.687 23.4839 134.866 23.256 135.028 22.9956C135.199 22.7352 135.346 22.4789 135.468 22.2266C135.598 21.9662 135.704 21.7749 135.785 21.6528C135.834 21.5959 135.883 21.5674 135.932 21.5674C135.972 21.5674 136.009 21.604 136.042 21.6773C136.074 21.7912 136.09 21.8929 136.09 21.9824C136.098 22.0638 136.103 22.1859 136.103 22.3486C136.103 22.4138 136.09 22.5114 136.066 22.6416C136.05 22.7637 136.025 22.8939 135.993 23.0322C135.968 23.1706 135.944 23.3049 135.919 23.4351C135.903 23.5571 135.895 23.6548 135.895 23.728C135.895 23.7687 135.895 23.8257 135.895 23.8989C135.895 23.964 135.891 24.0332 135.883 24.1065C135.883 24.1797 135.879 24.2489 135.871 24.314C135.862 24.3709 135.85 24.4116 135.834 24.4361C135.72 24.5093 135.618 24.5459 135.529 24.5459C134.512 24.5459 133.425 24.5378 132.27 24.5215C131.114 24.4971 129.962 24.4849 128.815 24.4849C128.611 24.4849 128.4 24.4889 128.18 24.4971C127.96 24.5052 127.749 24.5174 127.545 24.5337C127.342 24.5418 127.147 24.55 126.959 24.5581C126.78 24.5663 126.626 24.5703 126.496 24.5703C126.325 24.5703 126.182 24.5622 126.068 24.5459C125.963 24.5215 125.91 24.4442 125.91 24.314ZM145.282 23.5327L145.282 14.9756C145.282 14.7233 145.29 14.3775 145.307 13.938C145.323 13.4904 145.343 13.0103 145.368 12.4976C145.392 11.9849 145.412 11.464 145.429 10.9351C145.445 10.4061 145.453 9.93003 145.453 9.50685C145.453 8.93719 145.429 8.52215 145.38 8.26174C145.364 8.10711 145.299 7.98504 145.185 7.89553C145.079 7.79787 144.944 7.72463 144.782 7.6758C144.627 7.61883 144.448 7.58221 144.245 7.56594C144.049 7.54152 143.858 7.52118 143.671 7.5049C143.492 7.48049 143.321 7.46014 143.158 7.44386C143.004 7.41945 142.882 7.38283 142.792 7.334C142.686 7.27704 142.633 7.20786 142.633 7.12648C142.633 7.06138 142.637 7.01662 142.646 6.9922C142.662 6.96779 142.686 6.94745 142.719 6.93117C142.816 6.89862 142.91 6.87827 143 6.87013C143.097 6.85386 143.183 6.84572 143.256 6.84572L143.72 6.84572C144.086 6.84572 144.399 6.85386 144.66 6.87013C144.928 6.87827 145.176 6.89455 145.404 6.91896C145.632 6.93524 145.856 6.95151 146.076 6.96779C146.295 6.97593 146.544 6.98 146.82 6.98C147.121 6.98 147.398 6.96372 147.65 6.93117C147.911 6.89862 148.155 6.862 148.383 6.82131C148.619 6.78062 148.843 6.744 149.054 6.71144C149.274 6.67889 149.494 6.66262 149.713 6.66262L150.153 6.66262C150.242 6.66262 150.34 6.67075 150.446 6.68703C150.552 6.70331 150.604 6.76434 150.604 6.87014C150.604 7.00848 150.511 7.10614 150.324 7.1631C150.185 7.20379 150.023 7.24042 149.835 7.27297C149.656 7.29738 149.453 7.35435 149.225 7.44387C149.014 7.49269 148.839 7.54559 148.7 7.60256C148.57 7.65952 148.472 7.70428 148.407 7.73683C148.318 7.7938 148.236 7.86704 148.163 7.95656C148.098 8.04608 148.065 8.17629 148.065 8.34719L148.065 23.0689C148.065 23.2479 148.114 23.3862 148.212 23.4839C148.31 23.5816 148.432 23.6548 148.578 23.7036C148.733 23.7525 148.896 23.7809 149.066 23.7891C149.245 23.7972 149.412 23.8013 149.567 23.8013C149.746 23.8013 149.998 23.7931 150.324 23.7769C150.649 23.7606 150.991 23.7362 151.349 23.7036C151.707 23.6711 152.053 23.6304 152.387 23.5816C152.729 23.5246 153.005 23.4595 153.217 23.3862C153.502 23.2886 153.762 23.1909 153.998 23.0933C154.242 22.9875 154.446 22.8573 154.608 22.7027C154.633 22.6864 154.673 22.6538 154.73 22.605C154.787 22.548 154.848 22.4829 154.914 22.4097C154.987 22.3283 155.056 22.2429 155.121 22.1533C155.186 22.0638 155.243 21.9743 155.292 21.8848C155.341 21.8197 155.382 21.7627 155.414 21.7139C155.455 21.6651 155.491 21.6244 155.524 21.5918C155.556 21.5511 155.597 21.482 155.646 21.3843C155.695 21.2866 155.748 21.1768 155.805 21.0547C155.87 20.9326 155.935 20.8106 156 20.6885C156.065 20.5583 156.13 20.4362 156.195 20.3223C156.252 20.249 156.305 20.188 156.354 20.1392C156.411 20.0904 156.484 20.0659 156.574 20.0659C156.663 20.0659 156.712 20.1188 156.72 20.2246C156.736 20.3223 156.745 20.4199 156.745 20.5176C156.745 20.7129 156.72 20.9123 156.671 21.1157C156.631 21.3111 156.582 21.5064 156.525 21.7017C156.468 21.897 156.407 22.0923 156.342 22.2876C156.277 22.4829 156.228 22.6782 156.195 22.8736C156.155 23.0607 156.126 23.256 156.11 23.4595C156.102 23.6548 156.081 23.8379 156.049 24.0088C156.024 24.1716 155.972 24.3058 155.89 24.4116C155.817 24.5174 155.695 24.5703 155.524 24.5703L147.174 24.5703C146.67 24.5703 146.247 24.5785 145.905 24.5947C145.571 24.6192 145.266 24.6436 144.989 24.668C144.713 24.7005 144.436 24.725 144.159 24.7412C143.891 24.7656 143.573 24.7778 143.207 24.7778C143.069 24.7778 142.951 24.7656 142.853 24.7412C142.764 24.7168 142.69 24.6517 142.633 24.5459C142.625 24.5134 142.617 24.4889 142.609 24.4727C142.601 24.4564 142.597 24.4035 142.597 24.314C142.597 24.2082 142.641 24.1349 142.731 24.0943C142.829 24.0454 142.902 24.0129 142.951 23.9966C143.04 23.9803 143.174 23.9722 143.354 23.9722C143.533 23.964 143.695 23.9518 143.842 23.9356C143.915 23.9274 144.009 23.9152 144.123 23.8989C144.236 23.8827 144.359 23.8583 144.489 23.8257C144.627 23.7931 144.765 23.7525 144.904 23.7036C145.042 23.6548 145.168 23.5978 145.282 23.5327ZM158.014 18.7964C158.014 18.3163 158.059 17.8809 158.148 17.4903C158.238 17.0915 158.372 16.7212 158.551 16.3794C158.73 16.0376 158.95 15.7162 159.21 15.4151C159.479 15.1058 159.784 14.8047 160.126 14.5117C160.395 14.2839 160.683 14.0967 160.993 13.9502C161.302 13.8037 161.619 13.6898 161.945 13.6084C162.278 13.5189 162.62 13.4579 162.97 13.4253C163.32 13.3928 163.666 13.3765 164.008 13.3765C164.301 13.3765 164.61 13.4212 164.936 13.5108C165.269 13.6003 165.591 13.7183 165.9 13.8648C166.209 14.0031 166.494 14.1577 166.754 14.3286C167.015 14.4914 167.23 14.6501 167.401 14.8047C167.995 15.3662 168.455 15.9766 168.781 16.6358C169.106 17.2868 169.269 18.003 169.269 18.7842C169.269 19.2074 169.236 19.598 169.171 19.9561C169.114 20.306 169.025 20.6356 168.903 20.9448C168.789 21.2541 168.642 21.5471 168.463 21.8238C168.292 22.1004 168.093 22.3731 167.865 22.6416C167.654 22.8776 167.401 23.1096 167.108 23.3374C166.824 23.5653 166.506 23.7687 166.156 23.9478C165.806 24.1268 165.428 24.2733 165.021 24.3872C164.622 24.493 164.207 24.5459 163.776 24.5459C163.035 24.5459 162.352 24.4483 161.725 24.2529C161.107 24.0495 160.529 23.6955 159.992 23.1909C158.673 22.0435 158.014 20.5786 158.014 18.7964ZM163.666 13.9014C163.3 13.9014 162.986 13.9421 162.726 14.0235C162.474 14.0967 162.246 14.2066 162.042 14.353C161.847 14.4914 161.668 14.6623 161.505 14.8657C161.343 15.0692 161.176 15.2971 161.005 15.5493C160.696 16.0295 160.492 16.5422 160.395 17.0874C160.297 17.6245 160.248 18.1698 160.248 18.7232C160.248 19.3579 160.309 19.9927 160.431 20.6275C160.561 21.2541 160.81 21.8644 161.176 22.4585C161.273 22.6294 161.412 22.8085 161.591 22.9956C161.77 23.1747 161.965 23.3415 162.177 23.4961C162.388 23.6426 162.604 23.7687 162.824 23.8745C163.052 23.9722 163.263 24.021 163.458 24.021C163.841 24.021 164.175 23.9559 164.459 23.8257C164.752 23.6955 165.013 23.5246 165.241 23.313C165.469 23.0933 165.668 22.8451 165.839 22.5684C166.018 22.2835 166.189 21.9906 166.352 21.6895C166.555 21.2907 166.701 20.8635 166.791 20.4077C166.889 19.9439 166.937 19.4434 166.937 18.9063C166.937 18.5238 166.909 18.1657 166.852 17.8321C166.803 17.4984 166.722 17.1769 166.608 16.8677C166.502 16.5585 166.368 16.2573 166.205 15.9644C166.042 15.6633 165.851 15.3581 165.631 15.0488C165.412 14.7152 165.131 14.4426 164.789 14.231C164.455 14.0113 164.081 13.9014 163.666 13.9014ZM175.543 24.3994L171.955 13.5474C171.922 13.4741 171.824 13.4212 171.662 13.3887C171.499 13.348 171.336 13.3277 171.173 13.3277L170.771 13.3277C170.705 13.3277 170.636 13.3236 170.563 13.3155C170.49 13.2992 170.421 13.2788 170.355 13.2544C170.29 13.2219 170.237 13.1852 170.197 13.1446C170.156 13.0957 170.136 13.0388 170.136 12.9737C170.136 12.7865 170.213 12.6929 170.368 12.6929L170.88 12.6929C170.945 12.6929 171.035 12.697 171.149 12.7051C171.263 12.7132 171.381 12.7214 171.503 12.7295C171.633 12.7377 171.763 12.7458 171.894 12.7539C172.024 12.7621 172.138 12.7661 172.235 12.7661C172.3 12.7661 172.423 12.7621 172.602 12.7539C172.781 12.7458 172.984 12.7377 173.212 12.7295C173.448 12.7132 173.688 12.697 173.932 12.6807C174.184 12.6644 174.416 12.6522 174.628 12.6441C174.848 12.6278 175.031 12.6156 175.177 12.6074C175.332 12.5993 175.425 12.5952 175.458 12.5952C175.702 12.5952 175.824 12.7092 175.824 12.937C175.824 13.0021 175.759 13.055 175.629 13.0957C175.507 13.1364 175.356 13.173 175.177 13.2056C175.006 13.2381 174.831 13.2707 174.652 13.3032C174.473 13.3277 174.335 13.3521 174.237 13.3765C174.197 13.4009 174.176 13.4497 174.176 13.523C174.176 13.5392 174.18 13.5555 174.188 13.5718C174.188 13.5881 174.197 13.6288 174.213 13.6939L176.752 21.3599C176.776 21.4331 176.797 21.4779 176.813 21.4942C176.821 21.5104 176.829 21.5145 176.837 21.5064C176.862 21.5064 176.89 21.486 176.923 21.4453C176.955 21.3965 176.988 21.3395 177.021 21.2744C177.061 21.2093 177.094 21.1402 177.118 21.0669C177.151 20.9855 177.175 20.9123 177.191 20.8472C177.501 19.9601 177.798 19.0812 178.083 18.2105C178.367 17.3316 178.677 16.4649 179.01 15.6104C179.124 15.3011 179.234 15.0122 179.34 14.7437C179.446 14.4751 179.499 14.174 179.499 13.8404C179.499 13.7264 179.49 13.6166 179.474 13.5108C179.458 13.405 179.429 13.3317 179.389 13.291C179.364 13.2666 179.315 13.2463 179.242 13.23C179.169 13.2056 179.088 13.1893 178.998 13.1812C178.917 13.1649 178.831 13.1527 178.742 13.1446C178.66 13.1364 178.595 13.1283 178.546 13.1201C178.506 13.1201 178.432 13.1201 178.327 13.1201C178.229 13.112 178.127 13.0957 178.021 13.0713C177.916 13.0469 177.822 13.0103 177.741 12.9614C177.667 12.9126 177.631 12.8475 177.631 12.7661C177.631 12.6603 177.655 12.5952 177.704 12.5708C177.712 12.5464 177.773 12.5342 177.887 12.5342L178.058 12.5342C178.172 12.5342 178.331 12.5423 178.534 12.5586C178.746 12.5749 178.974 12.5912 179.218 12.6074C179.47 12.6237 179.726 12.64 179.987 12.6563C180.255 12.6725 180.5 12.6807 180.719 12.6807L181.439 12.6807C181.643 12.6807 181.859 12.6725 182.086 12.6563C182.314 12.6319 182.497 12.6197 182.636 12.6197C182.799 12.6197 182.917 12.64 182.99 12.6807C183.071 12.7132 183.112 12.7987 183.112 12.937C183.112 13.0347 183.03 13.1161 182.868 13.1812C182.713 13.2381 182.526 13.291 182.306 13.3399C182.095 13.3806 181.883 13.4212 181.671 13.4619C181.46 13.5026 181.305 13.5515 181.208 13.6084C181.02 13.7305 180.841 13.9095 180.67 14.1455C180.5 14.3734 180.341 14.6175 180.194 14.878C180.056 15.1302 179.934 15.3825 179.828 15.6348C179.722 15.8871 179.641 16.0987 179.584 16.2696C179.25 17.0834 178.888 17.9541 178.498 18.8819C178.115 19.8096 177.737 20.7211 177.362 21.6162C177.338 21.6813 177.281 21.8197 177.191 22.0313C177.102 22.2429 177.008 22.4707 176.911 22.7149C176.813 22.959 176.719 23.195 176.63 23.4229C176.548 23.6426 176.492 23.8054 176.459 23.9112C176.418 24.0332 176.374 24.1594 176.325 24.2896C176.284 24.4116 176.239 24.5215 176.19 24.6192C176.142 24.725 176.093 24.8104 176.044 24.8755C176.003 24.9406 175.963 24.9732 175.922 24.9732C175.881 24.9732 175.84 24.9488 175.8 24.8999C175.767 24.8511 175.735 24.7941 175.702 24.729C175.67 24.6639 175.641 24.5988 175.617 24.5337C175.592 24.4686 175.568 24.4239 175.543 24.3994ZM187.812 18.4424L189.899 18.357C190.224 18.3325 190.473 18.2552 190.644 18.125C190.814 17.9867 190.941 17.8239 191.022 17.6367C191.111 17.4414 191.177 17.2298 191.217 17.002C191.266 16.7741 191.335 16.5503 191.425 16.3306C191.449 16.2329 191.49 16.1841 191.547 16.1841C191.661 16.1841 191.718 16.2126 191.718 16.2696L191.718 16.7578C191.718 17.0834 191.701 17.4374 191.669 17.8198C191.645 18.1942 191.632 18.5157 191.632 18.7842C191.632 19.0446 191.653 19.3213 191.693 19.6143C191.742 19.9073 191.767 20.2084 191.767 20.5176C191.767 20.5583 191.763 20.6234 191.754 20.7129C191.746 20.8024 191.734 20.896 191.718 20.9937C191.701 21.0913 191.677 21.1768 191.645 21.25C191.62 21.3233 191.583 21.3599 191.535 21.3599C191.445 21.3599 191.388 21.3192 191.364 21.2378C191.347 21.1483 191.331 21.0669 191.315 20.9937C191.299 20.896 191.27 20.778 191.229 20.6397C191.189 20.5013 191.144 20.363 191.095 20.2246C191.046 20.0782 191.002 19.9479 190.961 19.834C190.92 19.7201 190.892 19.6428 190.875 19.6021C190.802 19.4556 190.66 19.3417 190.448 19.2603C190.237 19.1708 189.997 19.1057 189.728 19.065C189.468 19.0161 189.195 18.9877 188.91 18.9795C188.633 18.9632 188.389 18.9551 188.178 18.9551L187.812 18.9551C187.681 18.9551 187.6 18.9836 187.567 19.0406C187.535 19.0894 187.519 19.1708 187.519 19.2847L187.519 23.5694C187.519 23.8135 187.596 23.9681 187.75 24.0332L191.461 24.0332C191.624 24.0332 191.791 24.0332 191.962 24.0332C192.141 24.0251 192.259 24.0047 192.316 23.9722C192.438 23.9396 192.54 23.8705 192.621 23.7647C192.711 23.6507 192.784 23.5449 192.841 23.4473C192.865 23.4066 192.91 23.3212 192.975 23.1909C193.048 23.0607 193.122 22.9224 193.195 22.7759C193.276 22.6213 193.349 22.4789 193.415 22.3487C193.488 22.2185 193.541 22.133 193.573 22.0923C193.622 21.9947 193.703 21.9458 193.817 21.9458C193.891 21.9458 193.944 21.9743 193.976 22.0313L193.976 23.8501C193.976 23.9234 193.968 23.9925 193.952 24.0576C193.944 24.1146 193.931 24.1879 193.915 24.2774C193.882 24.3913 193.842 24.4686 193.793 24.5093C193.744 24.5419 193.651 24.5744 193.512 24.607C192.69 24.607 191.909 24.6029 191.168 24.5948C190.436 24.5866 189.691 24.5785 188.935 24.5703C188.178 24.5703 187.38 24.5663 186.542 24.5581C185.704 24.55 184.768 24.5459 183.734 24.5459C183.596 24.5459 183.527 24.4767 183.527 24.3384C183.527 24.2489 183.572 24.1797 183.661 24.1309C183.751 24.0821 183.832 24.0495 183.905 24.0332C183.954 24.0332 184.031 24.0292 184.137 24.021C184.251 24.0129 184.373 24.0088 184.503 24.0088C184.634 24.0007 184.76 23.9925 184.882 23.9844C185.004 23.9763 185.11 23.9722 185.199 23.9722C185.395 23.9722 185.492 23.8176 185.492 23.5083L185.492 14.4995C185.492 14.3612 185.476 14.1903 185.443 13.9868C185.419 13.7834 185.366 13.6125 185.285 13.4741C185.228 13.4335 185.199 13.4131 185.199 13.4131L183.49 13.2422C183.336 13.2422 183.258 13.1649 183.258 13.0103C183.258 12.9696 183.266 12.9208 183.283 12.8638C183.299 12.7987 183.352 12.7661 183.441 12.7661L185.443 12.7661C186.225 12.7661 186.994 12.7621 187.75 12.7539C188.507 12.7458 189.203 12.7417 189.838 12.7417L191.571 12.7417C191.701 12.7417 191.836 12.7458 191.974 12.7539C192.121 12.7539 192.259 12.758 192.389 12.7661C192.519 12.7661 192.637 12.7702 192.743 12.7783C192.849 12.7783 192.93 12.7783 192.987 12.7783C193.044 12.7865 193.089 12.815 193.122 12.8638C193.154 12.9126 193.174 12.9737 193.183 13.0469C193.199 13.112 193.207 13.1812 193.207 13.2544C193.215 13.3195 193.219 13.3724 193.219 13.4131L193.219 15.4029C193.219 15.4761 193.191 15.5127 193.134 15.5127C193.044 15.5127 192.975 15.4558 192.926 15.3418C192.886 15.2198 192.82 15.0773 192.731 14.9146C192.658 14.7355 192.568 14.5565 192.462 14.3775C192.357 14.1984 192.279 14.0601 192.23 13.9624C192.157 13.8241 192.043 13.7183 191.889 13.645C191.742 13.5637 191.575 13.5026 191.388 13.4619C191.201 13.4131 191.01 13.3765 190.814 13.3521C190.619 13.3277 190.448 13.2992 190.302 13.2666C190.253 13.2666 190.127 13.2626 189.923 13.2544C189.72 13.2463 189.488 13.2422 189.228 13.2422C188.975 13.2341 188.723 13.2259 188.471 13.2178C188.227 13.2097 188.035 13.2056 187.897 13.2056C187.726 13.2056 187.62 13.2544 187.58 13.3521C187.539 13.4497 187.519 13.5962 187.519 13.7915L187.519 18.1494C187.519 18.2227 187.543 18.2919 187.592 18.357C187.649 18.4139 187.722 18.4424 187.812 18.4424Z" fill="#0152A8"/>
<path d="M26.5582 1.36572C25.0085 1.36572 23.4801 1.72653 22.094 2.41957C20.708 3.11261 19.5023 4.11885 18.5725 5.3586C17.3154 3.68253 15.5628 2.44447 13.5631 1.81978C11.5633 1.19509 9.41762 1.21545 7.43004 1.87798C5.44247 2.5405 3.71373 3.8116 2.48871 5.51123C1.26369 7.21085 0.604492 9.25283 0.604492 11.3479C0.604492 23.3099 17.2249 32.7431 17.9236 33.1424C18.1216 33.2537 18.3453 33.311 18.5725 33.3088C18.7998 33.3126 19.0239 33.2552 19.2213 33.1424C22.282 31.3531 25.1528 29.2571 27.7893 26.8869C33.5957 21.6629 36.5404 16.4388 36.5404 11.3479C36.5404 8.70048 35.4887 6.16147 33.6167 4.28944C31.7447 2.41742 29.2057 1.36572 26.5582 1.36572Z" fill="#0FE3AF"/>
</svg>
