<svg width="176" height="35" viewBox="0 0 176 35" fill="none" xmlns="http://www.w3.org/2000/svg">
<path d="M52.3203 25.8459C51.4203 25.8459 50.612 25.6376 49.8953 25.2209C49.1786 24.8042 48.612 24.2376 48.1953 23.5209C47.7953 22.7876 47.5953 21.9376 47.5953 20.9709L47.5953 12.2709C47.5953 11.8209 47.487 11.4126 47.2703 11.0459C47.0536 10.6792 46.762 10.3876 46.3953 10.1709C46.0286 9.95423 45.6286 9.8459 45.1953 9.8459C44.762 9.8459 44.362 9.95423 43.9953 10.1709C43.6453 10.3876 43.362 10.6792 43.1453 11.0459C42.9453 11.4126 42.8453 11.8209 42.8453 12.2709L42.8453 25.5459L40.4453 25.5459L40.4453 12.5959C40.4453 11.6792 40.6453 10.8542 41.0453 10.1209C41.4453 9.38757 42.0036 8.81257 42.7203 8.3959C43.437 7.96257 44.262 7.7459 45.1953 7.7459C46.1453 7.7459 46.9786 7.96257 47.6953 8.3959C48.412 8.81257 48.9703 9.38757 49.3703 10.1209C49.7703 10.8542 49.9703 11.6792 49.9703 12.5959L49.9703 21.2959C49.9703 21.7626 50.0786 22.1792 50.2953 22.5459C50.512 22.8959 50.7953 23.1792 51.1453 23.3959C51.512 23.6126 51.9036 23.7209 52.3203 23.7209C52.737 23.7209 53.1203 23.6126 53.4703 23.3959C53.8203 23.1792 54.0953 22.8959 54.2953 22.5459C54.512 22.1792 54.6203 21.7626 54.6203 21.2959L54.6203 12.5959C54.6203 11.6792 54.8203 10.8542 55.2203 10.1209C55.637 9.38757 56.2036 8.81257 56.9203 8.3959C57.637 7.96257 58.4703 7.7459 59.4203 7.7459C60.3536 7.7459 61.1786 7.96257 61.8953 8.3959C62.612 8.81257 63.1703 9.38757 63.5703 10.1209C63.9703 10.8542 64.1703 11.6792 64.1703 12.5959L64.1703 25.5459L61.7703 25.5459L61.7703 12.2709C61.7703 11.8209 61.662 11.4126 61.4453 11.0459C61.2453 10.6792 60.962 10.3876 60.5953 10.1709C60.2453 9.95424 59.8536 9.8459 59.4203 9.8459C58.9703 9.8459 58.562 9.95423 58.1953 10.1709C57.8453 10.3876 57.562 10.6792 57.3453 11.0459C57.1286 11.4126 57.0203 11.8209 57.0203 12.2709L57.0203 20.9709C57.0203 21.9376 56.812 22.7876 56.3953 23.5209C55.9953 24.2376 55.437 24.8042 54.7203 25.2209C54.0203 25.6376 53.2203 25.8459 52.3203 25.8459ZM67.667 25.5459L67.667 16.4209C67.667 15.2876 67.9837 14.4042 68.617 13.7709C69.267 13.1209 70.1587 12.7959 71.292 12.7959L73.917 12.7959L73.917 14.7709L71.717 14.7709C71.167 14.7709 70.7337 14.9292 70.417 15.2459C70.117 15.5626 69.967 16.0042 69.967 16.5709L69.967 25.5459L67.667 25.5459ZM76.8178 25.7959C76.3678 25.7959 75.9761 25.6376 75.6428 25.3209C75.3261 24.9876 75.1678 24.5959 75.1678 24.1459C75.1678 23.6959 75.3261 23.3126 75.6428 22.9959C75.9761 22.6626 76.3678 22.4959 76.8178 22.4959C77.2678 22.4959 77.6511 22.6626 77.9678 22.9959C78.3011 23.3126 78.4678 23.6959 78.4678 24.1459C78.4678 24.4459 78.3928 24.7209 78.2428 24.9709C78.1094 25.2209 77.9178 25.4209 77.6678 25.5709C77.4178 25.7209 77.1344 25.7959 76.8178 25.7959ZM93.043 25.8459C92.143 25.8459 91.3346 25.6376 90.618 25.2209C89.9013 24.8042 89.3346 24.2376 88.918 23.5209C88.518 22.7876 88.318 21.9376 88.318 20.9709L88.318 12.2709C88.318 11.8209 88.2096 11.4126 87.993 11.0459C87.7763 10.6792 87.4846 10.3876 87.118 10.1709C86.7513 9.95424 86.3513 9.84591 85.918 9.84591C85.4846 9.84591 85.0846 9.95424 84.718 10.1709C84.368 10.3876 84.0846 10.6792 83.868 11.0459C83.668 11.4126 83.568 11.8209 83.568 12.2709L83.568 25.5459L81.168 25.5459L81.168 12.5959C81.168 11.6792 81.368 10.8542 81.768 10.1209C82.168 9.38757 82.7263 8.81257 83.443 8.39591C84.1596 7.96257 84.9846 7.74591 85.918 7.74591C86.868 7.74591 87.7013 7.96257 88.418 8.39591C89.1346 8.81257 89.693 9.38757 90.093 10.1209C90.493 10.8542 90.693 11.6792 90.693 12.5959L90.693 21.2959C90.693 21.7626 90.8013 22.1792 91.018 22.5459C91.2346 22.8959 91.518 23.1792 91.868 23.3959C92.2346 23.6126 92.6263 23.7209 93.043 23.7209C93.4596 23.7209 93.843 23.6126 94.193 23.3959C94.543 23.1792 94.818 22.8959 95.018 22.5459C95.2346 22.1792 95.343 21.7626 95.343 21.2959L95.343 12.5959C95.343 11.6792 95.543 10.8542 95.943 10.1209C96.3596 9.38757 96.9263 8.81257 97.643 8.39591C98.3596 7.96257 99.193 7.74591 100.143 7.74591C101.076 7.74591 101.901 7.96258 102.618 8.39591C103.335 8.81258 103.893 9.38758 104.293 10.1209C104.693 10.8542 104.893 11.6792 104.893 12.5959L104.893 25.5459L102.493 25.5459L102.493 12.2709C102.493 11.8209 102.385 11.4126 102.168 11.0459C101.968 10.6792 101.685 10.3876 101.318 10.1709C100.968 9.95424 100.576 9.84591 100.143 9.84591C99.693 9.84591 99.2846 9.95424 98.918 10.1709C98.568 10.3876 98.2846 10.6792 98.068 11.0459C97.8513 11.4126 97.743 11.8209 97.743 12.2709L97.743 20.9709C97.743 21.9376 97.5346 22.7876 97.118 23.5209C96.718 24.2376 96.1596 24.8042 95.443 25.2209C94.743 25.6376 93.943 25.8459 93.043 25.8459ZM114.94 25.5459C113.54 25.5459 112.298 25.2876 111.215 24.7709C110.131 24.2376 109.281 23.4959 108.665 22.5459C108.065 21.5792 107.765 20.4542 107.765 19.1709C107.765 17.9042 108.023 16.7709 108.54 15.7709C109.056 14.7542 109.773 13.9542 110.69 13.3709C111.606 12.7876 112.673 12.4959 113.89 12.4959C115.206 12.4959 116.298 12.7792 117.165 13.3459C118.048 13.9126 118.706 14.6792 119.14 15.6459C119.573 16.5959 119.79 17.6626 119.79 18.8459C119.79 19.0292 119.781 19.2209 119.765 19.4209C119.765 19.6209 119.748 19.7959 119.715 19.9459L110.215 19.9459C110.298 20.7292 110.556 21.3959 110.99 21.9459C111.423 22.4792 111.973 22.8876 112.64 23.1709C113.323 23.4376 114.073 23.5709 114.89 23.5709L118.215 23.5709L118.215 25.5459L114.94 25.5459ZM110.19 18.3209L117.465 18.3209C117.465 18.0042 117.431 17.6709 117.365 17.3209C117.298 16.9542 117.181 16.6042 117.015 16.2709C116.848 15.9209 116.623 15.6126 116.34 15.3459C116.073 15.0626 115.731 14.8376 115.315 14.6709C114.915 14.5042 114.44 14.4209 113.89 14.4209C113.306 14.4209 112.79 14.5376 112.34 14.7709C111.906 14.9876 111.531 15.2876 111.215 15.6709C110.898 16.0376 110.656 16.4542 110.49 16.9209C110.323 17.3876 110.223 17.8542 110.19 18.3209ZM128.597 25.8459C127.631 25.8459 126.747 25.6959 125.947 25.3959C125.147 25.0792 124.456 24.6209 123.872 24.0209C123.289 23.4209 122.831 22.7042 122.497 21.8709C122.181 21.0209 122.022 20.0709 122.022 19.0209C122.022 17.6876 122.289 16.5376 122.822 15.5709C123.372 14.5876 124.114 13.8292 125.047 13.2959C125.997 12.7626 127.056 12.4959 128.222 12.4959C128.872 12.4959 129.489 12.6042 130.072 12.8209C130.672 13.0376 131.206 13.3376 131.672 13.7209C132.139 14.1042 132.506 14.5542 132.772 15.0709L132.822 15.0709L132.822 7.29591L135.122 7.29591L135.122 19.0959C135.122 20.5126 134.831 21.7292 134.247 22.7459C133.681 23.7459 132.906 24.5126 131.922 25.0459C130.956 25.5792 129.847 25.8459 128.597 25.8459ZM128.597 23.8709C129.381 23.8709 130.089 23.6792 130.722 23.2959C131.356 22.9126 131.856 22.3709 132.222 21.6709C132.606 20.9709 132.797 20.1459 132.797 19.1959C132.797 18.2292 132.606 17.3959 132.222 16.6959C131.856 15.9792 131.356 15.4292 130.722 15.0459C130.089 14.6626 129.372 14.4709 128.572 14.4709C127.789 14.4709 127.072 14.6709 126.422 15.0709C125.789 15.4709 125.281 16.0209 124.897 16.7209C124.531 17.4209 124.347 18.2376 124.347 19.1709C124.347 20.1376 124.539 20.9709 124.922 21.6709C125.306 22.3709 125.814 22.9126 126.447 23.2959C127.097 23.6792 127.814 23.8709 128.597 23.8709ZM138.689 25.5459L138.689 12.7959L141.014 12.7959L141.014 25.5459L138.689 25.5459ZM139.864 10.7709C139.448 10.7709 139.081 10.6209 138.764 10.3209C138.464 10.0042 138.314 9.63758 138.314 9.22091C138.314 8.80425 138.464 8.44592 138.764 8.14591C139.081 7.82925 139.448 7.67092 139.864 7.67092C140.281 7.67092 140.639 7.82925 140.939 8.14592C141.256 8.44592 141.414 8.80425 141.414 9.22091C141.414 9.63758 141.256 10.0042 140.939 10.3209C140.639 10.6209 140.281 10.7709 139.864 10.7709ZM150.821 25.5459C149.505 25.5459 148.33 25.2626 147.296 24.6959C146.263 24.1293 145.446 23.3709 144.846 22.4209C144.246 21.4543 143.946 20.3709 143.946 19.1709C143.946 17.9709 144.246 16.8959 144.846 15.9459C145.446 14.9792 146.263 14.2126 147.296 13.6459C148.33 13.0793 149.505 12.7959 150.821 12.7959L152.321 12.7959L152.321 14.7709L150.746 14.7709C149.896 14.7709 149.13 14.9709 148.446 15.3709C147.78 15.7543 147.246 16.2793 146.846 16.9459C146.463 17.6126 146.271 18.3543 146.271 19.1709C146.271 19.9876 146.463 20.7293 146.846 21.3959C147.246 22.0626 147.78 22.5959 148.446 22.9959C149.13 23.3793 149.896 23.5709 150.746 23.5709L152.321 23.5709L152.321 25.5459L150.821 25.5459ZM160.249 25.8459C159.016 25.8459 157.949 25.5543 157.049 24.9709C156.149 24.3709 155.457 23.5626 154.974 22.5459C154.491 21.5293 154.249 20.4043 154.249 19.1709C154.249 17.9209 154.516 16.7959 155.049 15.7959C155.582 14.7793 156.349 13.9793 157.349 13.3959C158.349 12.7959 159.549 12.4959 160.949 12.4959C162.299 12.4959 163.457 12.7876 164.424 13.3709C165.391 13.9543 166.132 14.7459 166.649 15.7459C167.182 16.7459 167.449 17.8626 167.449 19.0959L167.449 25.5459L165.124 25.5459L165.124 22.9459L165.074 22.9459C164.824 23.4293 164.482 23.8959 164.049 24.3459C163.632 24.7793 163.107 25.1376 162.474 25.4209C161.841 25.7043 161.099 25.8459 160.249 25.8459ZM160.849 23.8709C161.682 23.8709 162.416 23.6709 163.049 23.2709C163.699 22.8543 164.199 22.2876 164.549 21.5709C164.916 20.8376 165.099 20.0209 165.099 19.1209C165.099 18.2376 164.924 17.4459 164.574 16.7459C164.241 16.0459 163.757 15.4959 163.124 15.0959C162.491 14.6793 161.749 14.4709 160.899 14.4709C159.999 14.4709 159.224 14.6793 158.574 15.0959C157.941 15.5126 157.449 16.0793 157.099 16.7959C156.766 17.4959 156.599 18.2959 156.599 19.1959C156.599 20.0626 156.766 20.8543 157.099 21.5709C157.432 22.2709 157.916 22.8293 158.549 23.2459C159.182 23.6626 159.949 23.8709 160.849 23.8709ZM171.111 25.5459L171.111 7.29592L173.411 7.29592L173.411 25.5459L171.111 25.5459Z" fill="#0152A8"/>
<path d="M28.0021 6.59319C26.516 5.11177 24.5032 4.27991 22.4049 4.27991C20.3065 4.27991 18.2938 5.11177 16.8077 6.59319L2.55477 20.8461C1.0703 22.3306 0.236328 24.3439 0.236328 26.4433C0.236328 28.5427 1.0703 30.5561 2.55477 32.0405C4.03925 33.525 6.05263 34.359 8.152 34.359C10.2514 34.359 12.2647 33.525 13.7492 32.0405L28.0021 17.7876C29.4799 16.2996 30.3093 14.2876 30.3093 12.1904C30.3093 10.0933 29.4799 8.0812 28.0021 6.59319ZM26.3096 16.0951L20.0294 22.3901L12.2052 14.5659L18.5002 8.28572C19.01 7.7677 19.6178 7.35629 20.2882 7.07547C20.9585 6.79465 21.6781 6.65003 22.4049 6.65003C23.1317 6.65003 23.8512 6.79465 24.5216 7.07547C25.192 7.35629 25.7998 7.7677 26.3096 8.28572C26.824 8.79756 27.2322 9.40601 27.5108 10.0761C27.7894 10.7462 27.9328 11.4647 27.9328 12.1904C27.9328 12.9161 27.7894 13.6346 27.5108 14.3047C27.2322 14.9748 26.824 15.5833 26.3096 16.0951ZM24.5131 12.621C24.623 12.7322 24.7095 12.8642 24.7676 13.0094C24.8257 13.1545 24.8542 13.3098 24.8515 13.4661C24.8487 13.6224 24.8147 13.7765 24.7515 13.9195C24.6883 14.0625 24.5972 14.1914 24.4834 14.2987L20.8608 17.8025C20.7496 17.9124 20.6176 17.9989 20.4724 18.057C20.3273 18.1151 20.172 18.1436 20.0157 18.1408C19.8594 18.1381 19.7052 18.1041 19.5623 18.0409C19.4193 17.9777 19.2904 17.8865 19.1831 17.7728C19.0733 17.6616 18.9867 17.5295 18.9286 17.3844C18.8705 17.2393 18.842 17.084 18.8448 16.9277C18.8475 16.7714 18.8815 16.6172 18.9447 16.4742C19.0079 16.3313 19.0991 16.2024 19.2128 16.0951L22.8354 12.5913C23.062 12.3731 23.3659 12.2536 23.6804 12.2592C23.9949 12.2648 24.2944 12.3949 24.5131 12.621Z" fill="#0FE3AF"/>
</svg>
