<svg width="26" height="26" viewBox="0 0 26 26" fill="none" xmlns="http://www.w3.org/2000/svg">
<path d="M16.903 1.62351C18.6873 2.10236 20.3142 3.04209 21.6205 4.34839C22.9268 5.65469 23.8665 7.28159 24.3453 9.06584M15.8116 5.68655C16.8848 5.97155 17.8635 6.53516 18.6486 7.32027C19.4337 8.10538 19.9973 9.08409 20.2823 10.1572M8.10634 12.7739C9.18879 15.0092 10.9963 16.8121 13.2344 17.8888C13.3995 17.967 13.5821 18.0008 13.7643 17.987C13.9464 17.9731 14.1218 17.9121 14.2732 17.8099L17.5605 15.614C17.7057 15.5155 17.8735 15.4554 18.0483 15.4393C18.223 15.4232 18.399 15.4517 18.5598 15.522L24.7135 18.1649C24.9238 18.2525 25.0995 18.4067 25.2136 18.6039C25.3276 18.8011 25.3737 19.0303 25.3447 19.2563C25.1496 20.7786 24.4066 22.1777 23.2546 23.1918C22.1025 24.2058 20.6205 24.7654 19.0857 24.7657C14.343 24.7657 9.79446 22.8817 6.44082 19.528C3.08718 16.1744 1.20313 11.6259 1.20312 6.88311C1.20347 5.34835 1.76303 3.86631 2.77709 2.71429C3.79116 1.56228 5.19024 0.819231 6.71255 0.624189C6.9385 0.595165 7.16772 0.641222 7.36493 0.755268C7.56213 0.869314 7.71638 1.04502 7.80391 1.25534L10.4469 7.42221C10.5156 7.58046 10.5443 7.75318 10.5306 7.92515C10.5168 8.09713 10.461 8.26308 10.368 8.40839L8.17209 11.7482C8.07432 11.8993 8.01695 12.0729 8.00544 12.2525C7.99392 12.432 8.02867 12.6115 8.10634 12.7739Z" stroke="#0152A8" stroke-linecap="round" stroke-linejoin="round"/>
</svg>
