<svg width="195" height="33" viewBox="0 0 195 33" fill="none" xmlns="http://www.w3.org/2000/svg">
<path d="M56.0113 25.7959C54.6447 25.7959 53.3363 25.6042 52.0863 25.2209C50.8363 24.8209 49.8447 24.3126 49.1113 23.6959L50.2363 21.1709C50.9363 21.7209 51.803 22.1792 52.8363 22.5459C53.8697 22.9126 54.928 23.0959 56.0113 23.0959C56.928 23.0959 57.6697 22.9959 58.2363 22.7959C58.803 22.5959 59.2197 22.3292 59.4863 21.9959C59.753 21.6459 59.8863 21.2542 59.8863 20.8209C59.8863 20.2876 59.6947 19.8626 59.3113 19.5459C58.928 19.2126 58.428 18.9542 57.8113 18.7709C57.2113 18.5709 56.5363 18.3876 55.7863 18.2209C55.053 18.0542 54.3113 17.8626 53.5613 17.6459C52.828 17.4126 52.153 17.1209 51.5363 16.7709C50.9363 16.4042 50.4447 15.9209 50.0613 15.3209C49.678 14.7209 49.4863 13.9542 49.4863 13.0209C49.4863 12.0709 49.7363 11.2042 50.2363 10.4209C50.753 9.6209 51.528 8.98756 52.5613 8.5209C53.6113 8.03756 54.9363 7.7959 56.5363 7.7959C57.5863 7.7959 58.628 7.92923 59.6613 8.1959C60.6947 8.46257 61.5947 8.8459 62.3613 9.3459L61.3363 11.8709C60.553 11.4042 59.7447 11.0626 58.9113 10.8459C58.078 10.6126 57.278 10.4959 56.5113 10.4959C55.6113 10.4959 54.878 10.6042 54.3113 10.8209C53.7613 11.0376 53.353 11.3209 53.0863 11.6709C52.8363 12.0209 52.7113 12.4209 52.7113 12.8709C52.7113 13.4042 52.8947 13.8376 53.2613 14.1709C53.6447 14.4876 54.1363 14.7376 54.7363 14.9209C55.353 15.1042 56.0363 15.2876 56.7863 15.4709C57.5363 15.6376 58.278 15.8292 59.0113 16.0459C59.7613 16.2626 60.4363 16.5459 61.0363 16.8959C61.653 17.2459 62.1447 17.7209 62.5113 18.3209C62.8947 18.9209 63.0863 19.6792 63.0863 20.5959C63.0863 21.5292 62.828 22.3959 62.3113 23.1959C61.8113 23.9792 61.0363 24.6126 59.9863 25.0959C58.9363 25.5626 57.6113 25.7959 56.0113 25.7959ZM73.409 25.7209C72.3256 25.7209 71.334 25.4709 70.434 24.9709C69.5506 24.4709 68.8423 23.7209 68.309 22.7209C67.7923 21.7042 67.534 20.4209 67.534 18.8709C67.534 17.3042 67.784 16.0209 68.284 15.0209C68.8006 14.0209 69.5006 13.2792 70.384 12.7959C71.2673 12.2959 72.2756 12.0459 73.409 12.0459C74.7256 12.0459 75.884 12.3292 76.884 12.8959C77.9006 13.4626 78.7006 14.2542 79.284 15.2709C79.884 16.2876 80.184 17.4876 80.184 18.8709C80.184 20.2542 79.884 21.4626 79.284 22.4959C78.7006 23.5126 77.9006 24.3042 76.884 24.8709C75.884 25.4376 74.7256 25.7209 73.409 25.7209ZM66.009 30.3959L66.009 12.1959L68.984 12.1959L68.984 15.3459L68.884 18.8959L69.134 22.4459L69.134 30.3959L66.009 30.3959ZM73.059 23.0459C73.809 23.0459 74.4756 22.8792 75.059 22.5459C75.659 22.2126 76.134 21.7292 76.484 21.0959C76.834 20.4626 77.009 19.7209 77.009 18.8709C77.009 18.0042 76.834 17.2626 76.484 16.6459C76.134 16.0126 75.659 15.5292 75.059 15.1959C74.4756 14.8626 73.809 14.6959 73.059 14.6959C72.309 14.6959 71.634 14.8626 71.034 15.1959C70.434 15.5292 69.959 16.0126 69.609 16.6459C69.259 17.2626 69.084 18.0042 69.084 18.8709C69.084 19.7209 69.259 20.4626 69.609 21.0959C69.959 21.7292 70.434 22.2126 71.034 22.5459C71.634 22.8792 72.309 23.0459 73.059 23.0459ZM83.1477 25.5459L83.1477 12.1959L86.2727 12.1959L86.2727 25.5459L83.1477 25.5459ZM84.7227 9.9959C84.1393 9.9959 83.656 9.81257 83.2727 9.4459C82.906 9.07924 82.7227 8.63757 82.7227 8.1209C82.7227 7.58757 82.906 7.1459 83.2727 6.7959C83.656 6.42924 84.1393 6.2459 84.7227 6.2459C85.306 6.2459 85.781 6.4209 86.1477 6.7709C86.531 7.10424 86.7227 7.52924 86.7227 8.0459C86.7227 8.5959 86.5393 9.06257 86.1727 9.4459C85.806 9.81257 85.3227 9.9959 84.7227 9.9959ZM97.9492 12.0459C99.0159 12.0459 99.9659 12.2542 100.799 12.6709C101.649 13.0876 102.316 13.7292 102.799 14.5959C103.283 15.4459 103.524 16.5459 103.524 17.8959L103.524 25.5459L100.399 25.5459L100.399 18.2959C100.399 17.1126 100.116 16.2292 99.5492 15.6459C98.9992 15.0626 98.2242 14.7709 97.2242 14.7709C96.4909 14.7709 95.8409 14.9209 95.2742 15.2209C94.7075 15.5209 94.2659 15.9709 93.9492 16.5709C93.6492 17.1542 93.4992 17.8959 93.4992 18.7959L93.4992 25.5459L90.3742 25.5459L90.3742 12.1959L93.3492 12.1959L93.3492 15.7959L92.8242 14.6959C93.2909 13.8459 93.9659 13.1959 94.8492 12.7459C95.7492 12.2792 96.7826 12.0459 97.9492 12.0459ZM115.713 25.5459L115.713 22.8459L115.538 22.2709L115.538 17.5459C115.538 16.6292 115.263 15.9209 114.713 15.4209C114.163 14.9042 113.33 14.6459 112.213 14.6459C111.463 14.6459 110.722 14.7626 109.988 14.9959C109.272 15.2292 108.663 15.5542 108.163 15.9709L106.938 13.6959C107.655 13.1459 108.505 12.7376 109.488 12.4709C110.488 12.1876 111.522 12.0459 112.588 12.0459C114.522 12.0459 116.013 12.5126 117.063 13.4459C118.13 14.3626 118.663 15.7876 118.663 17.7209L118.663 25.5459L115.713 25.5459ZM111.513 25.7209C110.513 25.7209 109.638 25.5542 108.888 25.2209C108.138 24.8709 107.555 24.3959 107.138 23.7959C106.738 23.1792 106.538 22.4876 106.538 21.7209C106.538 20.9709 106.713 20.2959 107.063 19.6959C107.43 19.0959 108.022 18.6209 108.838 18.2709C109.655 17.9209 110.738 17.7459 112.088 17.7459L115.963 17.7459L115.963 19.8209L112.313 19.8209C111.247 19.8209 110.53 19.9959 110.163 20.3459C109.797 20.6792 109.613 21.0959 109.613 21.5959C109.613 22.1626 109.838 22.6126 110.288 22.9459C110.738 23.2792 111.363 23.4459 112.163 23.4459C112.93 23.4459 113.613 23.2709 114.213 22.9209C114.83 22.5709 115.272 22.0542 115.538 21.3709L116.063 23.2459C115.763 24.0292 115.222 24.6376 114.438 25.0709C113.672 25.5042 112.697 25.7209 111.513 25.7209ZM122.674 25.5459L122.674 6.99591L125.799 6.99591L125.799 25.5459L122.674 25.5459ZM145.21 25.7959C143.876 25.7959 142.635 25.5792 141.485 25.1459C140.351 24.6959 139.36 24.0709 138.51 23.2709C137.676 22.4542 137.026 21.4959 136.56 20.3959C136.093 19.2959 135.86 18.0959 135.86 16.7959C135.86 15.4959 136.093 14.2959 136.56 13.1959C137.026 12.0959 137.685 11.1459 138.535 10.3459C139.385 9.52925 140.376 8.90425 141.51 8.47091C142.643 8.02091 143.885 7.79591 145.235 7.79591C146.668 7.79591 147.976 8.04592 149.16 8.54592C150.343 9.02925 151.343 9.75425 152.16 10.7209L150.06 12.6959C149.426 12.0126 148.718 11.5042 147.935 11.1709C147.151 10.8209 146.301 10.6459 145.385 10.6459C144.468 10.6459 143.626 10.7959 142.86 11.0959C142.11 11.3959 141.451 11.8209 140.885 12.3709C140.335 12.9209 139.901 13.5709 139.585 14.3209C139.285 15.0709 139.135 15.8959 139.135 16.7959C139.135 17.6959 139.285 18.5209 139.585 19.2709C139.901 20.0209 140.335 20.6709 140.885 21.2209C141.451 21.7709 142.11 22.1959 142.86 22.4959C143.626 22.7959 144.468 22.9459 145.385 22.9459C146.301 22.9459 147.151 22.7792 147.935 22.4459C148.718 22.0959 149.426 21.5709 150.06 20.8709L152.16 22.8709C151.343 23.8209 150.343 24.5459 149.16 25.0459C147.976 25.5459 146.66 25.7959 145.21 25.7959ZM163.077 25.5459L163.077 22.8459L162.902 22.2709L162.902 17.5459C162.902 16.6293 162.627 15.9209 162.077 15.4209C161.527 14.9043 160.693 14.6459 159.577 14.6459C158.827 14.6459 158.085 14.7626 157.352 14.9959C156.635 15.2293 156.027 15.5543 155.527 15.9709L154.302 13.6959C155.018 13.1459 155.868 12.7376 156.852 12.4709C157.852 12.1876 158.885 12.0459 159.952 12.0459C161.885 12.0459 163.377 12.5126 164.427 13.4459C165.493 14.3626 166.027 15.7876 166.027 17.7209L166.027 25.5459L163.077 25.5459ZM158.877 25.7209C157.877 25.7209 157.002 25.5543 156.252 25.2209C155.502 24.8709 154.918 24.3959 154.502 23.7959C154.102 23.1793 153.902 22.4876 153.902 21.7209C153.902 20.9709 154.077 20.2959 154.427 19.6959C154.793 19.0959 155.385 18.6209 156.202 18.2709C157.018 17.9209 158.102 17.7459 159.452 17.7459L163.327 17.7459L163.327 19.8209L159.677 19.8209C158.61 19.8209 157.893 19.9959 157.527 20.3459C157.16 20.6793 156.977 21.0959 156.977 21.5959C156.977 22.1626 157.202 22.6126 157.652 22.9459C158.102 23.2793 158.727 23.4459 159.527 23.4459C160.293 23.4459 160.977 23.2709 161.577 22.9209C162.193 22.5709 162.635 22.0543 162.902 21.3709L163.427 23.2459C163.127 24.0293 162.585 24.6376 161.802 25.0709C161.035 25.5043 160.06 25.7209 158.877 25.7209ZM170.037 25.5459L170.037 12.1959L173.012 12.1959L173.012 15.8709L172.662 14.7959C173.062 13.8959 173.687 13.2126 174.537 12.7459C175.404 12.2793 176.479 12.0459 177.762 12.0459L177.762 15.0209C177.629 14.9876 177.504 14.9709 177.387 14.9709C177.271 14.9543 177.154 14.9459 177.037 14.9459C175.854 14.9459 174.912 15.2959 174.212 15.9959C173.512 16.6793 173.162 17.7043 173.162 19.0709L173.162 25.5459L170.037 25.5459ZM186.566 25.7209C185.083 25.7209 183.783 25.4293 182.666 24.8459C181.566 24.2459 180.708 23.4293 180.091 22.3959C179.491 21.3626 179.191 20.1876 179.191 18.8709C179.191 17.5376 179.483 16.3626 180.066 15.3459C180.666 14.3126 181.483 13.5043 182.516 12.9209C183.566 12.3376 184.758 12.0459 186.091 12.0459C187.391 12.0459 188.55 12.3293 189.566 12.8959C190.583 13.4626 191.383 14.2626 191.966 15.2959C192.55 16.3293 192.841 17.5459 192.841 18.9459C192.841 19.0793 192.833 19.2293 192.816 19.3959C192.816 19.5626 192.808 19.7209 192.791 19.8709L181.666 19.8709L181.666 17.7959L191.141 17.7959L189.916 18.4459C189.933 17.6793 189.775 17.0043 189.441 16.4209C189.108 15.8376 188.65 15.3793 188.066 15.0459C187.5 14.7126 186.841 14.5459 186.091 14.5459C185.325 14.5459 184.65 14.7126 184.066 15.0459C183.5 15.3793 183.05 15.8459 182.716 16.4459C182.4 17.0293 182.241 17.7209 182.241 18.5209L182.241 19.0209C182.241 19.8209 182.425 20.5293 182.791 21.1459C183.158 21.7626 183.675 22.2376 184.341 22.5709C185.008 22.9043 185.775 23.0709 186.641 23.0709C187.391 23.0709 188.066 22.9543 188.666 22.7209C189.266 22.4876 189.8 22.1209 190.266 21.6209L191.941 23.5459C191.341 24.2459 190.583 24.7876 189.666 25.1709C188.766 25.5376 187.733 25.7209 186.566 25.7209Z" fill="#0152A8"/>
<path d="M33.055 6.07504H2.64799V2.10891C2.64799 1.75828 2.50871 1.42201 2.26078 1.17408C2.01284 0.926152 1.67658 0.786865 1.32595 0.786865C0.975322 0.786865 0.639055 0.926152 0.391124 1.17408C0.143193 1.42201 0.00390625 1.75828 0.00390625 2.10891V28.5498C0.00390625 28.9004 0.143193 29.2367 0.391124 29.4846C0.639055 29.7325 0.975322 29.8718 1.32595 29.8718C1.67658 29.8718 2.01284 29.7325 2.26078 29.4846C2.50871 29.2367 2.64799 28.9004 2.64799 28.5498V23.2616H37.0211V28.5498C37.0211 28.9004 37.1604 29.2367 37.4083 29.4846C37.6563 29.7325 37.9925 29.8718 38.3432 29.8718C38.6938 29.8718 39.0301 29.7325 39.278 29.4846C39.5259 29.2367 39.6652 28.9004 39.6652 28.5498V12.6853C39.6652 10.9321 38.9688 9.25078 37.7291 8.01113C36.4895 6.77147 34.8081 6.07504 33.055 6.07504ZM2.64799 8.71913H14.5464V20.6175H2.64799V8.71913Z" fill="#0FE3AF"/>
</svg>
