<svg width="16" height="16" viewBox="0 0 16 16" fill="none" xmlns="http://www.w3.org/2000/svg">
<path d="M7.79921 11.013C9.39089 11.013 10.6812 9.72267 10.6812 8.131C10.6812 6.53933 9.39089 5.24902 7.79921 5.24902C6.20754 5.24902 4.91724 6.53933 4.91724 8.131C4.91724 9.72267 6.20754 11.013 7.79921 11.013Z" stroke="white" stroke-linecap="round" stroke-linejoin="round"/>
<path d="M11.6252 13.8949C10.3413 14.7473 8.80956 15.1465 7.27297 15.0293C5.73638 14.912 4.28297 14.2849 3.14334 13.2476C2.00372 12.2102 1.24316 10.822 0.982352 9.30316C0.721545 7.78433 0.975426 6.22191 1.70371 4.8638C2.432 3.50569 3.59297 2.42969 5.00241 1.80654C6.41186 1.18339 7.98904 1.04877 9.4837 1.42405C10.9784 1.79933 12.3049 2.66301 13.2528 3.87805C14.2007 5.09309 14.7157 6.58989 14.7161 8.13095C14.7161 9.72324 14.1397 11.0129 12.6987 11.0129C11.2577 11.0129 10.6813 9.72324 10.6813 8.13095V5.24897" stroke="white" stroke-linecap="round" stroke-linejoin="round"/>
</svg>
