<svg width="26" height="26" viewBox="0 0 26 26" fill="none" xmlns="http://www.w3.org/2000/svg">
<path d="M18.3978 12.6884C18.3978 15.4671 16.1452 17.7196 13.3665 17.7196C10.5878 17.7196 8.33526 15.4671 8.33526 12.6884C8.33526 9.90969 10.5878 7.65712 13.3665 7.65712C16.1452 7.65712 18.3978 9.90969 18.3978 12.6884ZM18.3978 12.6884C18.3978 15.4681 19.404 17.7196 21.9196 17.7196C24.4353 17.7196 25.4415 15.4681 25.4415 12.6884C25.4409 9.99805 24.5418 7.385 22.887 5.26383C21.2322 3.14266 18.9164 1.63488 16.307 0.97973C13.6977 0.32458 10.9443 0.559589 8.48377 1.64747C6.02322 2.73535 3.99643 4.61378 2.72502 6.98471C1.45361 9.35564 1.0104 12.0833 1.4657 14.7348C1.92101 17.3863 3.24876 19.8098 5.23827 21.6208C7.22779 23.4318 9.7651 24.5265 12.4476 24.7312C15.1301 24.9359 17.8042 24.2389 20.0455 22.7509M18.3978 12.6884V7.65712" stroke="#0152A8" stroke-linecap="round" stroke-linejoin="round"/>
</svg>
