<svg width="162" height="34" viewBox="0 0 162 34" fill="none" xmlns="http://www.w3.org/2000/svg">
<path d="M42.1811 8.3209C42.1811 7.95423 42.2394 7.5959 42.3561 7.2459C44.1061 7.46256 46.1061 7.5709 48.3561 7.5709C50.6061 7.5709 52.9227 7.35423 55.3061 6.9209C55.0727 8.4709 54.1061 9.31257 52.4061 9.4459C51.5227 9.52923 50.6311 9.5959 49.7311 9.6459C49.7144 10.2959 49.4311 12.5459 48.8811 16.3959C48.3477 20.2459 48.0811 22.8959 48.0811 24.3459C48.0811 25.7792 48.1977 26.7709 48.4311 27.3209C47.3977 26.9542 46.6644 26.4626 46.2311 25.8459C45.8144 25.2126 45.6061 24.4626 45.6061 23.5959C45.6061 22.7126 45.8227 20.6792 46.2561 17.4959C46.7061 14.2959 46.9644 11.7209 47.0311 9.7709C45.5811 9.8209 44.3311 9.8459 43.2811 9.8459C42.5477 9.8459 42.1811 9.33756 42.1811 8.3209ZM66.2033 26.5459C66.1367 26.5959 65.92 26.6626 65.5533 26.7459C65.2033 26.8459 64.87 26.8959 64.5533 26.8959C64.2533 26.8959 64.0783 26.7709 64.0283 26.5209C63.795 25.4876 63.52 23.8709 63.2033 21.6709C62.8867 19.4709 62.67 18.0376 62.5533 17.3709C62.22 18.1209 61.5117 19.5959 60.4283 21.7959C59.3616 23.9959 58.6366 25.5792 58.2533 26.5459C58.17 26.6126 57.9866 26.6876 57.7033 26.7709C57.4366 26.8542 57.1533 26.8959 56.8533 26.8959C56.5533 26.8959 56.3783 26.7709 56.3283 26.5209C56.0783 25.4542 55.8116 23.8626 55.5283 21.7459C55.245 19.6126 54.945 17.7542 54.6283 16.1709C54.3117 14.5709 53.9117 13.3626 53.4283 12.5459C54.0617 12.1126 54.5867 11.8959 55.0033 11.8959C55.4367 11.8959 55.7867 11.9959 56.0533 12.1959C56.3367 12.3792 56.5617 12.6792 56.7283 13.0959C56.9117 13.4959 57.0533 13.9459 57.1533 14.4459C57.2533 14.9292 57.3367 15.5542 57.4033 16.3209C57.47 17.0709 57.5283 17.7959 57.5783 18.4959C57.7283 20.7292 57.8867 22.5376 58.0533 23.9209C59.97 19.4709 61.2117 16.1792 61.7783 14.0459C61.595 13.5126 61.3783 13.0126 61.1283 12.5459C61.7617 12.1126 62.2867 11.8959 62.7033 11.8959C63.12 11.8959 63.4617 11.9959 63.7283 12.1959C63.995 12.3792 64.2117 12.6792 64.3783 13.0959C64.545 13.4959 64.6783 13.9459 64.7783 14.4459C64.895 14.9292 64.9867 15.5542 65.0533 16.3209C65.1367 17.0709 65.2033 17.7959 65.2533 18.4959C65.3867 20.4459 65.5533 22.2542 65.7533 23.9209C66.5867 21.9709 67.22 20.4792 67.6533 19.4459C68.0867 18.3959 68.5533 17.0626 69.0533 15.4459C69.5533 13.8292 69.8117 12.5376 69.8283 11.5709C70.8617 12.0709 71.3783 12.8792 71.3783 13.9959C71.3783 14.7459 71.0783 15.7709 70.4783 17.0709C69.895 18.3709 69.1533 19.9292 68.2533 21.7459C67.3533 23.5459 66.67 25.1459 66.2033 26.5459ZM82.726 18.3459C82.726 16.7126 82.5176 15.5459 82.101 14.8459C81.701 14.1292 81.1176 13.7709 80.351 13.7709C79.601 13.7709 78.8426 14.1459 78.076 14.8959C77.3093 15.6292 76.701 16.5459 76.251 17.6459C75.8176 18.7292 75.601 19.8626 75.601 21.0459C75.601 22.2126 75.826 23.2292 76.276 24.0959C76.726 24.9459 77.4093 25.3709 78.326 25.3709C79.626 25.3709 80.6843 24.6042 81.501 23.0709C82.3176 21.5376 82.726 19.9626 82.726 18.3459ZM75.476 17.3709C76.1093 15.5709 76.9593 14.2626 78.026 13.4459C79.1093 12.6126 80.201 12.1959 81.301 12.1959C82.4176 12.1959 83.3426 12.6876 84.076 13.6709C84.8093 14.6376 85.176 15.9542 85.176 17.6209C85.176 19.4542 84.826 21.1542 84.126 22.7209C83.3426 24.4542 82.2093 25.6626 80.726 26.3459C79.926 26.7292 79.0426 26.9209 78.076 26.9209C76.726 26.9209 75.5426 26.3626 74.526 25.2459C73.5093 24.1126 73.001 22.5042 73.001 20.4209C73.001 18.3209 73.451 16.5042 74.351 14.9709C75.251 13.4376 76.476 12.3709 78.026 11.7709C78.3593 11.7709 78.526 11.9376 78.526 12.2709C76.876 13.3542 75.8593 15.0542 75.476 17.3709ZM91.7557 18.8209C92.3057 16.9376 93.1473 15.3542 94.2807 14.0709C95.4307 12.7709 96.5057 12.1209 97.5057 12.1209C98.5057 12.1209 99.214 12.4292 99.6307 13.0459C100.047 13.6459 100.256 14.4709 100.256 15.5209C100.256 16.5542 100.089 18.0126 99.7557 19.8959C99.439 21.7792 99.2807 23.1542 99.2807 24.0209C99.2807 24.8709 99.389 25.4959 99.6057 25.8959C99.8223 26.2792 100.189 26.6126 100.706 26.8959C100.489 26.9126 100.181 26.9209 99.7807 26.9209C98.714 26.9209 97.9223 26.7042 97.4057 26.2709C96.9057 25.8209 96.6557 25.0626 96.6557 23.9959C96.6557 23.3792 96.8223 22.1376 97.1557 20.2709C97.489 18.3876 97.6557 17.0042 97.6557 16.1209C97.6557 15.0209 97.2723 14.4709 96.5057 14.4709C96.0557 14.4709 95.5557 14.7126 95.0057 15.1959C94.4557 15.6626 93.9223 16.3042 93.4057 17.1209C92.9057 17.9209 92.4807 18.9459 92.1307 20.1959C91.7973 21.4292 91.6307 22.6542 91.6307 23.8709C91.6307 25.0709 91.6807 25.9626 91.7807 26.5459C91.3807 26.5792 91.1557 26.5959 91.1057 26.5959C90.3223 26.5959 89.739 26.4292 89.3557 26.0959C88.989 25.7626 88.8057 25.2459 88.8057 24.5459C88.8057 23.8292 88.9557 22.4626 89.2557 20.4459C90.139 14.2459 90.5807 9.53757 90.5807 6.32091C90.5807 4.87091 90.4807 3.89591 90.2807 3.39591C91.2473 3.74591 91.9223 4.26257 92.3057 4.94591C92.7057 5.62924 92.9057 6.57091 92.9057 7.77091C92.9057 8.60424 92.739 10.3542 92.4057 13.0209C92.089 15.6876 91.8723 17.6209 91.7557 18.8209ZM107.858 16.7709C107.375 17.6042 107 18.4626 106.733 19.3459C106.483 20.2126 106.358 21.0459 106.358 21.8459C106.358 22.6459 106.533 23.3292 106.883 23.8959C107.25 24.4459 107.766 24.7209 108.433 24.7209C109.366 24.7209 110.241 24.2126 111.058 23.1959C111.875 22.1626 112.5 20.9209 112.933 19.4709C113.383 18.0042 113.608 16.6542 113.608 15.4209C113.608 14.1709 113.558 13.1459 113.458 12.3459C113.858 12.3126 114.108 12.2959 114.208 12.2959C115.625 12.2959 116.333 13.0209 116.333 14.4709C116.333 14.7876 116.133 16.0792 115.733 18.3459C115.333 20.5959 115.133 22.4042 115.133 23.7709C115.133 25.1209 115.391 26.3209 115.908 27.3709C114.858 27.1542 114.091 26.6959 113.608 25.9959C113.141 25.2792 112.908 24.2542 112.908 22.9209C112.908 22.6876 112.941 22.2376 113.008 21.5709C112.558 23.1542 111.766 24.4292 110.633 25.3959C109.5 26.3626 108.383 26.8459 107.283 26.8459C106.2 26.8459 105.325 26.4376 104.658 25.6209C103.991 24.7876 103.658 23.6459 103.658 22.1959C103.658 20.7292 103.925 19.3042 104.458 17.9209C105.008 16.5209 105.825 15.3126 106.908 14.2959C108.008 13.2792 109.233 12.7709 110.583 12.7709C111.166 12.7709 111.808 12.8876 112.508 13.1209C111.525 13.3709 110.625 13.8292 109.808 14.4959C108.991 15.1626 108.341 15.9209 107.858 16.7709ZM131.777 15.6709C131.777 16.4376 131.61 17.7959 131.277 19.7459C130.96 21.6792 130.802 23.0876 130.802 23.9709C130.802 24.8542 130.91 25.4959 131.127 25.8959C131.344 26.2792 131.71 26.6126 132.227 26.8959C132.01 26.9126 131.702 26.9209 131.302 26.9209C130.169 26.9209 129.36 26.7126 128.877 26.2959C128.41 25.8626 128.177 25.0959 128.177 23.9959C128.177 23.3792 128.344 22.1376 128.677 20.2709C129.01 18.3876 129.177 17.0042 129.177 16.1209C129.177 15.0209 128.844 14.4709 128.177 14.4709C127.11 14.4709 126.002 15.4126 124.852 17.2959C123.719 19.1792 123.152 21.4459 123.152 24.0959C123.152 25.1459 123.202 25.9626 123.302 26.5459C122.869 26.5792 122.61 26.5959 122.527 26.5959C121.06 26.5959 120.327 25.8792 120.327 24.4459C120.327 24.1126 120.502 22.8292 120.852 20.5959C121.202 18.3626 121.377 16.5876 121.377 15.2709C121.377 13.9376 121.235 12.7126 120.952 11.5959C121.935 11.9792 122.619 12.5292 123.002 13.2459C123.402 13.9459 123.602 14.7542 123.602 15.6709C123.602 16.5709 123.502 17.6209 123.302 18.8209C123.852 16.9376 124.71 15.3542 125.877 14.0709C127.06 12.7709 128.16 12.1209 129.177 12.1209C130.91 12.1209 131.777 13.3042 131.777 15.6709ZM137.827 21.4959C137.827 22.4459 138.01 23.2209 138.377 23.8209C138.743 24.4209 139.31 24.7209 140.077 24.7209C140.86 24.7209 141.568 24.3792 142.202 23.6959C142.852 22.9959 143.368 22.0626 143.752 20.8959C144.152 19.7126 144.493 18.4626 144.777 17.1459C145.077 15.8126 145.293 14.3959 145.427 12.8959C145.677 10.1126 145.802 7.90425 145.802 6.27092C145.802 4.63758 145.735 3.42092 145.602 2.62092C147.318 3.17092 148.177 4.89592 148.177 7.79592C148.177 8.97925 147.893 11.3626 147.327 14.9459C146.777 18.5292 146.502 21.1459 146.502 22.7959C146.502 24.4459 146.577 25.8459 146.727 26.9959C145.777 26.6793 145.127 26.1126 144.777 25.2959C144.427 24.4792 144.252 23.4376 144.252 22.1709C143.735 23.6042 142.968 24.7376 141.952 25.5709C140.935 26.4042 139.877 26.8209 138.777 26.8209C137.693 26.8209 136.81 26.4042 136.127 25.5709C135.46 24.7209 135.127 23.4792 135.127 21.8459C135.127 19.1292 135.835 16.8959 137.252 15.1459C138.685 13.3959 140.46 12.5209 142.577 12.5209C143.177 12.5209 143.818 12.6126 144.502 12.7959C143.368 12.9792 142.352 13.3959 141.452 14.0459C140.552 14.6792 139.852 15.4292 139.352 16.2959C138.335 18.0626 137.827 19.7959 137.827 21.4959ZM156.332 13.3459C155.782 13.3459 155.282 13.5209 154.832 13.8709C154.399 14.2209 154.182 14.7043 154.182 15.3209C154.182 15.9209 154.382 16.4876 154.782 17.0209C155.198 17.5543 155.698 18.0293 156.282 18.4459C156.865 18.8626 157.457 19.2876 158.057 19.7209C159.457 20.7543 160.157 21.8626 160.157 23.0459C160.157 24.2293 159.682 25.1959 158.732 25.9459C157.782 26.6793 156.565 27.0459 155.082 27.0459C153.615 27.0459 152.473 26.7543 151.657 26.1709C150.857 25.5876 150.457 24.9043 150.457 24.1209C150.457 23.3209 150.657 22.6959 151.057 22.2459C151.457 21.7959 151.94 21.5709 152.507 21.5709C152.807 21.5709 153.09 21.6376 153.357 21.7709C152.99 22.2376 152.807 22.7876 152.807 23.4209C152.807 24.0543 152.998 24.5876 153.382 25.0209C153.782 25.4543 154.323 25.6709 155.007 25.6709C155.707 25.6709 156.298 25.4959 156.782 25.1459C157.265 24.7793 157.507 24.3209 157.507 23.7709C157.507 23.2209 157.365 22.7376 157.082 22.3209C156.798 21.9043 156.44 21.5459 156.007 21.2459C155.59 20.9459 155.132 20.6126 154.632 20.2459C154.132 19.8793 153.665 19.5209 153.232 19.1709C152.815 18.8043 152.465 18.3543 152.182 17.8209C151.898 17.2709 151.757 16.6709 151.757 16.0209C151.757 14.8376 152.207 13.8709 153.107 13.1209C154.007 12.3543 155.14 11.9709 156.507 11.9709C157.874 11.9709 158.874 12.2543 159.507 12.8209C160.14 13.3876 160.457 14.0293 160.457 14.7459C160.457 15.4459 160.282 16.0293 159.932 16.4959C159.582 16.9459 159.132 17.1709 158.582 17.1709C158.315 17.1709 158.007 17.0959 157.657 16.9459C158.09 16.4126 158.307 15.8376 158.307 15.2209C158.307 14.6043 158.115 14.1376 157.732 13.8209C157.365 13.5043 156.899 13.3459 156.332 13.3459Z" fill="#0152A8"/>
<path d="M33.0435 13.2377V20.7027C33.0435 21.3626 32.7813 21.9956 32.3146 22.4622C31.848 22.9289 31.2151 23.191 30.5551 23.191H23.0902V30.656C23.0902 31.3159 22.828 31.9488 22.3614 32.4155C21.8947 32.8821 21.2618 33.1443 20.6019 33.1443H13.1369C12.477 33.1443 11.8441 32.8821 11.3774 32.4155C10.9108 31.9488 10.6486 31.3159 10.6486 30.656V23.191H3.18363C2.52369 23.191 1.89077 22.9289 1.42412 22.4622C0.957474 21.9956 0.695313 21.3626 0.695312 20.7027V13.2377C0.695312 12.5778 0.957474 11.9449 1.42412 11.4782C1.89077 11.0116 2.52369 10.7494 3.18363 10.7494H10.6486V3.28446C10.6486 2.62452 10.9108 1.9916 11.3774 1.52495C11.8441 1.0583 12.477 0.796143 13.1369 0.796143H20.6019C21.2618 0.796143 21.8947 1.0583 22.3614 1.52495C22.828 1.9916 23.0902 2.62452 23.0902 3.28446V10.7494H30.5551C31.2151 10.7494 31.848 11.0116 32.3146 11.4782C32.7813 11.9449 33.0435 12.5778 33.0435 13.2377Z" fill="#0FE3AF"/>
</svg>
