<svg width="42" height="42" viewBox="0 0 42 42" fill="none" xmlns="http://www.w3.org/2000/svg">
<path d="M41.0366 12.1034C40.7575 12.3733 40.3844 12.5242 39.9961 12.5242C39.6078 12.5242 39.2347 12.3733 38.9555 12.1034L35.6148 8.74448L30.3756 13.9837L36.6554 20.2453C36.9296 20.5221 37.0835 20.8961 37.0835 21.2858C37.0835 21.6755 36.9296 22.0495 36.6554 22.3263C36.3762 22.5963 36.0031 22.7471 35.6148 22.7471C35.2265 22.7471 34.8534 22.5963 34.5743 22.3263L33.4242 21.158L18.0898 36.4924C17.542 37.0388 16.8008 37.3471 16.027 37.3504H7.00894L3.06582 41.3118C2.78667 41.5817 2.41357 41.7326 2.02527 41.7326C1.63697 41.7326 1.26387 41.5817 0.984725 41.3118C0.710486 41.0349 0.556641 40.6609 0.556641 40.2712C0.556641 39.8815 0.710486 39.5076 0.984725 39.2307L4.9461 35.2875V26.2695C4.94942 25.4957 5.25772 24.7545 5.8041 24.2066L7.84868 22.1621C7.98518 22.0283 8.16869 21.9533 8.35983 21.9533C8.55096 21.9533 8.73448 22.0283 8.87097 22.1621L14.1285 27.4378C14.4076 27.7077 14.7807 27.8586 15.169 27.8586C15.5573 27.8586 15.9304 27.7077 16.2096 27.4378C16.4838 27.1609 16.6377 26.787 16.6377 26.3973C16.6377 26.0075 16.4838 25.6336 16.2096 25.3567L10.9338 20.0992C10.8 19.9627 10.7251 19.7792 10.7251 19.5881C10.7251 19.3969 10.8 19.2134 10.9338 19.0769L14.4206 15.5902C14.5571 15.4564 14.7406 15.3814 14.9317 15.3814C15.1228 15.3814 15.3063 15.4564 15.4428 15.5902L20.7003 20.8659C20.9795 21.1358 21.3526 21.2867 21.7409 21.2867C22.1292 21.2867 22.5023 21.1358 22.7814 20.8659C23.0557 20.589 23.2095 20.2151 23.2095 19.8254C23.2095 19.4357 23.0557 19.0617 22.7814 18.7848L17.5057 13.5273C17.3719 13.3908 17.2969 13.2073 17.2969 13.0162C17.2969 12.8251 17.3719 12.6415 17.5057 12.505L21.1385 8.87226L20.0249 7.7587C19.7491 7.48685 19.5878 7.11971 19.5742 6.73268C19.5607 6.34565 19.6958 5.96811 19.9519 5.6776C20.0869 5.53665 20.2485 5.42382 20.4274 5.34563C20.6062 5.26745 20.7988 5.22544 20.9939 5.22205C21.1891 5.21865 21.383 5.25393 21.5645 5.32586C21.746 5.39778 21.9114 5.50492 22.0512 5.64109L28.3128 11.9209L33.552 6.68164L30.2478 3.37745C29.972 3.1056 29.8107 2.73846 29.7972 2.35143C29.7836 1.9644 29.9187 1.58686 30.1748 1.29635C30.3098 1.1554 30.4714 1.04257 30.6503 0.964384C30.8291 0.886196 31.0217 0.844194 31.2169 0.8408C31.412 0.837406 31.6059 0.872686 31.7874 0.944608C31.9689 1.01653 32.1343 1.12367 32.2741 1.25984L41.0366 10.0223C41.3109 10.2992 41.4647 10.6732 41.4647 11.0629C41.4647 11.4526 41.3109 11.8265 41.0366 12.1034Z" fill="#0152A8"/>
</svg>
